<svg xmlns="http://www.w3.org/2000/svg" width="128" height="128" viewBox="0 0 128 128" version="1.1"><path d="M 106.888 29.480 C 104.456 30.820, 103.057 33.227, 101.500 38.750 C 100.874 40.968, 100.628 41, 84.196 41 L 67.527 41 60.786 45.648 L 54.045 50.295 49.890 47.398 C 40.115 40.580, 41.907 41.011, 23.315 41.005 C -2.344 40.997, -1.752 40.339, 4.579 61.860 C 10.895 83.330, 5.226 81, 51.155 81 C 81.575 81, 89.996 81.271, 89.981 82.250 C 89.970 82.938, 89.378 85.750, 88.666 88.500 L 87.370 93.500 50.435 94 L 13.500 94.500 13.179 96.762 L 12.858 99.023 52.179 98.762 L 91.500 98.500 99.683 67.117 C 109.119 30.931, 107.599 33.643, 118.796 33 C 126.667 32.548, 127.500 32.309, 127.500 30.500 C 127.500 27.876, 111.259 27.073, 106.888 29.480 M 24.195 106.489 C 20.647 109.475, 19.710 113.370, 21.506 117.669 C 24.859 125.694, 37.643 124.454, 39.517 115.922 C 41.496 106.913, 31.214 100.583, 24.195 106.489 M 69.923 106.923 C 63.581 113.266, 67.626 122.899, 76.661 122.968 C 80.100 122.994, 81.271 122.466, 83.411 119.923 C 91.391 110.440, 78.669 98.178, 69.923 106.923" stroke="none" fill="#f9f1ea" fill-rule="evenodd"/><path d="M 34.898 7.285 C 25.300 13.738, 29.529 33.578, 42.346 42.230 C 44.195 43.479, 47.584 45.804, 49.877 47.398 L 54.045 50.295 61.123 45.415 C 86.402 27.985, 83.096 -5.579, 57.306 6.659 C 54.048 8.205, 53.617 8.205, 51 6.659 C 46.821 4.190, 39.051 4.492, 34.898 7.285" stroke="none" fill="#e34d3d" fill-rule="evenodd"/></svg>
