<svg xmlns="http://www.w3.org/2000/svg" width="128" height="128" viewBox="0 0 128 128" version="1.1"><path d="M 34.898 7.285 C 24.121 14.531, 29.198 32.327, 45.553 44.637 C 54.495 51.368, 54.796 51.339, 64.904 42.774 C 86.628 24.366, 80.579 -4.385, 57.306 6.659 C 54.048 8.205, 53.617 8.205, 51 6.659 C 46.821 4.190, 39.051 4.492, 34.898 7.285" stroke="none" fill="#e34c3c" fill-rule="evenodd"/><path d="M 106.253 30.441 C 104.657 31.783, 102.805 34.708, 102.136 36.941 L 100.920 41 84.135 41 L 67.350 41 61.554 45.500 C 54.436 51.027, 53.930 51.026, 46.576 45.473 L 40.651 41 23.576 41.100 C -3.479 41.258, -2.136 38.734, 7.476 71.350 C 10.524 81.693, 7.362 81, 51.500 81 C 94.878 81, 91.249 80.218, 88.625 89 L 87.280 93.500 50.390 94 C 14.333 94.489, 13.500 94.545, 13.500 96.500 C 13.500 98.466, 14.167 98.500, 52.472 98.500 L 91.444 98.500 99.521 67.345 C 109.016 30.718, 107.751 33, 118.563 33 C 123.139 33, 127.135 32.591, 127.444 32.090 C 130.411 27.290, 111.726 25.835, 106.253 30.441 M 24.077 106.589 C 17.484 112.136, 21.228 123, 29.732 123 C 36.937 123, 41.225 117.243, 39.014 110.541 C 36.876 104.064, 29.421 102.092, 24.077 106.589 M 72.357 104.945 C 66.490 107.440, 65.215 115.369, 69.923 120.077 C 78.350 128.504, 91.560 116.510, 83.750 107.522 C 81.280 104.679, 75.864 103.454, 72.357 104.945" stroke="none" fill="#445c6c" fill-rule="evenodd"/></svg>
