<?xml version="1.0" standalone="no"?>
<!DOCTYPE svg PUBLIC "-//W3C//DTD SVG 20010904//EN"
 "http://www.w3.org/TR/2001/REC-SVG-20010904/DTD/svg10.dtd">
<svg version="1.0" xmlns="http://www.w3.org/2000/svg"
 width="199.000000pt" height="199.000000pt" viewBox="0 0 199.000000 199.000000"
 preserveAspectRatio="xMidYMid meet">

<g transform="translate(0.000000,199.000000) scale(0.100000,-0.100000)"
fill="#000000" stroke="none">
<path d="M697 1569 c-26 -15 -46 -68 -40 -102 3 -16 24 -44 52 -67 l46 -40
-62 25 c-74 30 -83 31 -83 8 0 -13 24 -28 88 -53 l87 -35 -155 -5 -155 -5 -3
-208 c-2 -195 -1 -208 15 -205 16 3 18 21 21 191 l2 187 385 0 385 0 2 -187
c3 -172 4 -188 21 -191 12 -3 20 4 24 17 5 20 12 21 127 21 94 0 127 -4 144
-16 32 -22 27 -32 -15 -36 -38 -3 -38 -4 -37 -45 1 -51 17 -73 55 -73 28 0 29
-2 29 -45 0 -43 -1 -45 -29 -45 -21 0 -32 6 -36 21 -10 31 -64 59 -114 59 -37
0 -49 -6 -82 -39 l-39 -39 0 68 c0 76 -6 100 -25 100 -19 0 -25 -24 -25 -101
l0 -69 -208 0 c-208 0 -209 0 -221 23 -40 74 -172 74 -212 0 -11 -20 -20 -23
-71 -23 -51 0 -58 2 -58 19 0 17 8 20 47 23 36 2 49 7 51 21 3 15 -7 17 -113
17 -106 0 -116 -2 -113 -17 2 -13 15 -19 45 -21 40 -3 42 -4 45 -40 l3 -37 69
-5 c67 -5 70 -6 78 -35 16 -58 63 -95 121 -95 65 0 108 37 131 113 5 16 23 17
228 15 l222 -3 8 -31 c13 -50 70 -94 121 -94 70 0 104 29 131 112 4 13 16 18
46 18 l40 0 0 124 c0 69 -4 136 -10 151 -5 14 -25 35 -45 46 -42 25 -60 76
-57 165 2 54 -1 64 -24 85 -22 21 -37 24 -113 27 l-88 4 -9 36 -9 37 -155 5
-155 5 88 34 c66 26 87 38 87 52 0 25 -8 24 -83 -6 l-62 -26 50 44 c45 40 50
48 50 87 0 52 -38 90 -89 90 -50 0 -80 -31 -116 -117 -18 -43 -33 -79 -35 -81
-1 -1 -14 31 -29 71 -32 89 -68 127 -117 127 -18 0 -42 -5 -52 -11z m91 -41
c13 -16 74 -169 69 -174 -7 -7 -132 82 -150 108 -19 25 -19 28 -3 52 18 28 65
36 84 14z m298 -13 c14 -21 15 -30 5 -48 -10 -19 -97 -84 -148 -111 -24 -13
46 160 71 176 23 16 56 7 72 -17z m415 -345 c10 -6 19 -17 19 -25 0 -12 -18
-15 -95 -15 -95 0 -95 0 -95 25 0 24 2 25 76 25 41 0 84 -5 95 -10z m21 -145
l15 -65 -103 0 -104 0 0 65 0 65 88 0 88 0 16 -65z m108 -216 c0 -15 -5 -20
-22 -17 -34 5 -37 38 -4 38 20 0 26 -5 26 -21z m-825 -134 c54 -53 16 -145
-60 -145 -76 0 -114 92 -60 145 16 17 35 25 60 25 25 0 44 -8 60 -25z m710 0
c54 -53 16 -145 -60 -145 -49 0 -85 36 -85 85 0 49 36 85 85 85 25 0 44 -8 60
-25z"/>
<path d="M714 639 c-13 -15 -16 -24 -8 -36 20 -32 41 -38 63 -19 26 23 26 38
3 59 -24 22 -35 21 -58 -4z"/>
<path d="M1430 640 c-17 -17 -18 -24 -10 -41 16 -29 38 -34 60 -14 25 22 25
37 2 58 -24 22 -28 21 -52 -3z"/>
<path d="M425 820 c-15 -25 12 -30 151 -30 133 0 145 1 142 18 -3 15 -19 17
-145 20 -89 2 -144 -1 -148 -8z"/>
<path d="M902 723 c3 -16 18 -18 168 -18 140 0 165 2 165 15 0 13 -27 15 -168
18 -157 2 -168 1 -165 -15z"/>
</g>
</svg>
