<?xml version="1.0" encoding="UTF-8"?>
<svg height="1000" width="1000" xmlns="http://www.w3.org/2000/svg"><path d="M485 991l-25-11c-60-30-90-82-90-154v-12l-11 11c-30 28-57 44-90 51-13 2-46 2-60-1-16-3-34-10-48-17l-13-6-5-10c-15-29-21-55-21-82 0-18 2-31 7-46 8-26 23-49 46-73l11-11h-12A162 162 0 015 500a162 162 0 01168-130h10l-9-10c-23-24-37-46-45-71-5-16-7-28-7-46 0-28 6-54 21-83l5-10 9-4c18-10 38-17 58-20 11-2 15-2 30-2 19 1 26 2 43 8 25 8 47 22 71 45l11 11v-13c0-63 22-109 67-142 16-11 53-28 63-28s47 17 63 28c45 32 67 79 67 141v11l11-10c29-27 56-42 87-49 12-2 45-2 58 0 16 3 31 9 50 17 12 6 14 7 19 17 20 41 26 81 16 118-7 29-22 55-47 81l-10 11h12a162 162 0 01169 130c0 10-17 47-28 63-33 45-79 67-142 67h-13l11 11c30 32 47 63 52 99 4 30-3 66-19 99l-6 13-14 6c-15 8-36 15-51 18-13 2-45 2-57 0a174 174 0 01-87-49l-11-10v10a162 162 0 01-130 168l-15-4z" fill="#fdf4e0"/><path d="M487 991c-41-14-75-40-94-72-14-26-22-57-22-92v-15l-13 12c-27 27-57 44-89 51-13 3-46 2-60-1-19-4-53-17-59-23-3-2-11-19-15-30a160 160 0 0142-180l10-11-14-1c-72 0-124-31-154-91L9 512l-4-12 4-12c16-49 47-85 87-102 23-10 48-15 76-15l13-1-10-10c-22-22-37-46-45-71-6-17-7-28-7-47 0-22 3-39 12-61 4-12 12-28 15-30 6-6 40-19 59-23 13-3 47-3 60-1 33 7 61 23 90 52l12 11v-16c0-73 31-125 91-155l26-10 12-4 12 4c49 16 85 47 102 87 10 23 15 48 15 77v14l11-10c27-26 55-42 87-50 12-2 40-3 53-1 20 4 39 10 59 20l10 5 4 9c9 16 16 37 20 56 2 12 2 40 0 53-6 32-23 63-51 91l-10 11h15c72 0 124 31 154 91l10 26 4 12-4 12-10 26c-30 60-82 91-155 91h-16l12 12c25 27 41 52 48 82 7 26 6 56-2 84-6 17-16 40-20 44a178 178 0 01-121 24c-32-8-60-24-87-50l-11-10v13c0 71-32 123-91 153l-36 13c-2 1-7 0-15-3zm26-33c38-15 64-41 77-76 5-16 7-28 8-51l-2-40-26 7 1 6c5 9 3 20-4 27-6 7-14 9-44 12h-7l-1 13-1 16c-3 5-7 8-13 9l-8 2c-8 4-16 3-22-2s-7-9-8-25v-14l-15-3a407 407 0 01-45-9c-2 0-1 19 2 32 8 41 30 70 67 89 13 7 27 12 29 11l11-4zM263 844a140 140 0 0070-38l3-4-4-2a6175 6175 0 00-49-33l-10 10-12 11c-10 5-22 0-27-11l-4-7c-3-2-5-7-5-11 0-5 3-9 12-18l8-10-4-5a403 403 0 01-44-62l-9 9c-32 37-42 76-30 120 2 9 10 29 13 33 2 5 26 14 42 18 17 3 35 3 50 0zm517 0c11-2 30-8 39-12 7-4 7-4 11-12a137 137 0 008-97c-6-20-18-39-37-58-11-11-26-25-28-25l-4 6a328 328 0 01-27 42l5 3a24 24 0 0110 36l-3 6 8 9 9 10c2 4 1 11-2 16l-4 8c-3 9-13 15-21 13-6-1-9-3-18-12l-9-10-13 9a437 437 0 01-41 28l8 8c34 29 70 40 109 32zM169 598l-3-16a362 362 0 01-9-46c-1-1-3-2-13-2l-14-2c-3-2-9-9-10-13v-8-8c-1-4 0-10 4-14 5-4 6-4 19-5l12-1 2-10c1-15 3-20 8-26 8-7 19-9 29-4l5 2 10-41-40-2c-35 1-56 7-80 23-20 13-39 38-49 66l-3 9 3 9 9 19a124 124 0 00120 70zm693-3c41-8 70-30 89-67l9-19 3-9-3-9a128 128 0 00-130-89l-38 2 4 19c5 16 8 37 10 53v7h6a496 496 0 0057 2c6 2 11 8 12 14l2 8c3 7 0 18-6 22-6 5-9 5-41 5l-32 1c-1 4 0 11 3 17 2 5 2 8 3 17 0 10-1 16-5 24-2 3-2 4-1 4a284 284 0 0058-2zm-82-238c16-13 34-33 44-48 9-14 17-34 19-49 2-10 1-34-1-44l-12-34c-4-8-4-8-11-11l-17-7c-51-18-97-7-140 34-11 11-24 27-23 28l4 3a343 343 0 0146 29l22-19 23-21c8-4 18-2 24 5l6 6c11 6 11 20 0 27-3 2-4 2-10 2-6-1-7-1-9 1-2 3-2 3-2 8 1 7-1 11-9 20l-7 7 6 7a331 331 0 0141 60l6-4zm-575-36a409 409 0 0127-39l-9-10c-7-7-9-9-10-13v-9c2-6 5-11 9-13l7-4c4-4 9-6 14-5 3 0 6 2 14 9l10 8 8-6c11-10 18-14 25-14 4 0 11 3 15 6s9 12 9 15l1 2 14-8a365 365 0 0121-13c0-3-29-33-41-43-38-29-77-36-121-21l-19 7-8 4-3 8c-16 34-19 66-9 96a146 146 0 0036 58l10-15zm392-117l1-29c0-28-2-39-8-57-13-36-41-63-81-78l-9-3-9 3c-12 5-28 13-38 20-30 22-48 56-51 98v10h3a642 642 0 0045-10l14-2 1-12c0-12 2-17 7-22 4-3 9-5 15-4a107 107 0 0017 2c2 0 8 4 10 8l1 35v31h9a362 362 0 0170 14l3-4z" fill="#fdb9cd"/><path d="M487 991c-41-14-75-40-94-72-14-26-22-57-22-92v-15l-13 12c-27 27-57 44-89 51-13 3-46 2-60-1-19-4-53-17-59-23-3-2-11-19-15-30a160 160 0 0142-180l10-11-14-1c-72 0-124-31-154-91L9 512l-4-12 4-12c16-49 47-85 87-102 23-10 48-15 76-15l13-1-10-10c-22-22-37-46-45-71-6-17-7-28-7-47 0-22 3-39 12-61 4-12 12-28 15-30 6-6 40-19 59-23 13-3 47-3 60-1 33 7 61 23 90 52l12 11v-16c0-73 31-125 91-155l26-10 12-4 12 4c49 16 85 47 102 87 10 23 15 48 15 77v14l11-10c27-26 55-42 87-50 12-2 40-3 53-1 20 4 39 10 59 20l10 5 4 9c9 16 16 37 20 56 2 12 2 40 0 53-6 32-23 63-51 91l-10 11h15c72 0 124 31 154 91l10 26 4 12-4 12-10 26c-30 60-82 91-155 91h-16l12 12c25 27 41 52 48 82 7 26 6 56-2 84-6 17-16 40-20 44a178 178 0 01-121 24c-32-8-60-24-87-50l-11-10v13c0 71-32 123-91 153l-36 13c-2 1-7 0-15-3zm26-33c38-15 64-41 77-76 5-16 7-28 8-51l-2-40-26 7 1 6c5 9 3 20-4 27-6 7-14 9-44 12h-7l-1 13-1 16c-3 5-7 8-13 9l-8 2c-8 4-16 3-22-2s-7-9-8-25v-14l-15-3a407 407 0 01-45-9c-2 0-1 19 2 32 8 41 30 70 67 89 13 7 27 12 29 11l11-4zM263 844a140 140 0 0070-38l3-4-4-2a6175 6175 0 00-49-33l-10 10-12 11c-10 5-22 0-27-11l-4-7c-3-2-5-7-5-11 0-5 3-9 12-18l8-10-4-5a403 403 0 01-44-62l-9 9c-32 37-42 76-30 120 2 9 10 29 13 33 2 5 26 14 42 18 17 3 35 3 50 0zm517 0c11-2 30-8 39-12 7-4 7-4 11-12a137 137 0 008-97c-6-20-18-39-37-58-11-11-26-25-28-25l-4 6a328 328 0 01-27 42l5 3a24 24 0 0110 36l-3 6 8 9 9 10c2 4 1 11-2 16l-4 8c-3 9-13 15-21 13-6-1-9-3-18-12l-9-10-13 9a437 437 0 01-41 28l8 8c34 29 70 40 109 32zM303 597c6-3 10-7 13-13 3-5 3-7 3-13s-1-9-3-14c-4-7-6-9-15-14-6-3-8-4-10-8l-1-4h-17l-1 3c-3 6-6 7-24 7-16 0-16 0-22 3-10 5-16 14-16 27 0 11 6 21 16 26l6 3 33-1c32 0 34 0 38-2zm470 0c6-3 10-7 13-13 3-5 3-7 3-13s-1-9-3-14c-4-7-6-9-15-14-6-3-8-4-9-8l-2-4h-17l-1 3c-3 6-6 7-24 7-16 0-16 0-22 3-10 5-16 14-16 27 0 11 6 21 16 26l6 3 33-1c32 0 34 0 38-2zm-604 1l-3-16a362 362 0 01-9-46c-1-1-3-2-13-2l-14-2c-3-2-9-9-10-13v-8-8c-1-4 0-10 4-14 5-4 6-4 19-5l12-1 2-10c1-15 3-20 8-26 8-7 19-9 29-4l5 2 10-41-40-2c-35 1-56 7-80 23-20 13-39 38-49 66l-3 9 3 9 9 19a124 124 0 00120 70zm693-3c41-8 70-30 89-67l9-19 3-9-3-9a128 128 0 00-130-89l-38 2 4 19c5 16 8 37 10 53v7h6a496 496 0 0057 2c6 2 11 8 12 14l2 8c3 7 0 18-6 22-6 5-9 5-41 5l-32 1c-1 4 0 11 3 17 2 5 2 8 3 17 0 10-1 16-5 24-2 3-2 4-1 4a284 284 0 0058-2zm-82-238c16-13 34-33 44-48 9-14 17-34 19-49 2-10 1-34-1-44l-12-34c-4-8-4-8-11-11l-17-7c-51-18-97-7-140 34-11 11-24 27-23 28l4 3a343 343 0 0146 29l22-19 23-21c8-4 18-2 24 5l6 6c11 6 11 20 0 27-3 2-4 2-10 2-6-1-7-1-9 1-2 3-2 3-2 8 1 7-1 11-9 20l-7 7 6 7a331 331 0 0141 60l6-4zm-575-36a409 409 0 0127-39l-9-10c-7-7-9-9-10-13v-9c2-6 5-11 9-13l7-4c4-4 9-6 14-5 3 0 6 2 14 9l10 8 8-6c11-10 18-14 25-14 4 0 11 3 15 6s9 12 9 15l1 2 14-8a365 365 0 0121-13c0-3-29-33-41-43-38-29-77-36-121-21l-19 7-8 4-3 8c-16 34-19 66-9 96a146 146 0 0036 58l10-15zm392-117l1-29c0-28-2-39-8-57-13-36-41-63-81-78l-9-3-9 3c-12 5-28 13-38 20-30 22-48 56-51 98v10h3a642 642 0 0045-10l14-2 1-12c0-12 2-17 7-22 4-3 9-5 15-4a107 107 0 0017 2c2 0 8 4 10 8l1 35v31h9a362 362 0 0170 14l3-4z" fill="#fde787"/><path d="M487 991c-41-14-75-40-94-72-14-26-22-57-22-92v-15l-13 12c-27 27-57 44-89 51-13 3-46 2-60-1-19-4-53-17-59-23-3-2-11-19-15-30a160 160 0 0142-180l10-11-14-1c-72 0-124-31-154-91L9 512l-4-12 4-12c16-49 47-85 87-102 23-10 48-15 76-15l13-1-10-10c-22-22-37-46-45-71-6-17-7-28-7-47 0-22 3-39 12-61 4-12 12-28 15-30 6-6 40-19 59-23 13-3 47-3 60-1 33 7 61 23 90 52l12 11v-16c0-73 31-125 91-155l26-10 12-4 12 4c49 16 85 47 102 87 10 23 15 48 15 77v14l11-10c27-26 55-42 87-50 12-2 40-3 53-1 20 4 39 10 59 20l10 5 4 9c9 16 16 37 20 56 2 12 2 40 0 53-6 32-23 63-51 91l-10 11h15c72 0 124 31 154 91l10 26 4 12-4 12-10 26c-30 60-82 91-155 91h-16l12 12c25 27 41 52 48 82 7 26 6 56-2 84-6 17-16 40-20 44a178 178 0 01-121 24c-32-8-60-24-87-50l-11-10v13c0 71-32 123-91 153l-36 13c-2 1-7 0-15-3zm26-33c38-15 64-41 77-76 5-16 7-28 8-51l-2-40-26 7 1 6c5 9 3 20-4 27-6 7-14 9-44 12h-7l-1 13-1 16c-3 5-7 8-13 9l-8 2c-8 4-16 3-22-2s-7-9-8-25v-14l-15-3a407 407 0 01-45-9c-2 0-1 19 2 32 8 41 30 70 67 89 13 7 27 12 29 11l11-4zM263 844a140 140 0 0070-38l3-4-4-2a6175 6175 0 00-49-33l-10 10-12 11c-10 5-22 0-27-11l-4-7c-3-2-5-7-5-11 0-5 3-9 12-18l8-10-4-5a403 403 0 01-44-62l-9 9c-32 37-42 76-30 120 2 9 10 29 13 33 2 5 26 14 42 18 17 3 35 3 50 0zm517 0c11-2 30-8 39-12 7-4 7-4 11-12a137 137 0 008-97c-6-20-18-39-37-58-11-11-26-25-28-25l-4 6a328 328 0 01-27 42l5 3a24 24 0 0110 36l-3 6 8 9 9 10c2 4 1 11-2 16l-4 8c-3 9-13 15-21 13-6-1-9-3-18-12l-9-10-13 9a437 437 0 01-41 28l8 8c34 29 70 40 109 32zm-238-72a274 274 0 00205-151l-21-1c-16 1-23 0-28-1-25-5-42-31-38-56 2-15 13-30 26-37 9-5 17-6 35-6 14 0 15 1 17 3l4 5c2 2 1 3 0 6-3 6-6 7-24 7-14 0-16 0-20 2-8 4-11 7-15 14-3 5-3 7-3 14 0 11 6 21 16 26 4 2 6 2 39 2 32 0 34 0 38-2 6-3 10-7 13-13 3-5 3-7 3-13 0-7 0-9-3-14-4-7-7-10-16-14-6-3-7-4-9-9-2-4-2-4 2-8 3-3 4-4 7-4l4-1 1-5 1-24a295 295 0 00-24-103 268 268 0 00-185-156c-24-6-40-8-67-8a275 275 0 00-275 288l1 7h20c20 0 20 1 22 3l4 5c2 2 1 3 0 6-3 6-6 7-24 7-14 0-16 0-21 2-7 4-10 7-14 14-3 5-3 7-3 14 0 11 6 21 16 26 4 2 6 2 39 2 32 0 34 0 38-2 6-3 10-7 13-13 3-5 3-7 3-13 0-7 0-9-3-14-4-7-7-10-16-14-6-3-7-4-9-9-2-4-2-4 2-8 5-6 8-6 19-1a51 51 0 01-11 94c-5 1-13 2-31 1h-24l-2 3c-5 5-5 7 6 25 4 7 5 8 7 7l8-1c6 0 9 2 16 12a273 273 0 00261 106zm-88-128c-3-1-8-8-9-12-2-10 3-31 9-39 10-15 25-22 46-22s36 7 46 22c5 6 8 18 9 29 0 10-1 14-5 19-5 4-13 5-18 2s-7-7-7-17c-1-19-8-25-25-25s-24 6-25 25c0 10-2 14-7 17-4 2-10 3-14 1zm-80-145c-29-5-50-29-50-57-1-17 5-31 16-43 12-11 23-16 39-18 27-2 53 17 61 45 2 8 2 24-1 32a60 60 0 01-65 41zm234 0c-22-4-40-19-47-41-3-8-3-24-1-32 6-22 24-39 46-44 13-2 28 0 41 7 8 5 19 16 23 25 5 10 6 17 6 28 0 24-16 46-40 54-9 3-20 4-28 3zm-439 99l-3-16a362 362 0 01-9-46c-1-1-3-2-13-2l-14-2c-3-2-9-9-10-13v-8-8c-1-4 0-10 4-14 5-4 6-4 19-5l12-1 2-10c1-15 3-20 8-26 8-7 19-9 29-4l5 2 10-41-40-2c-35 1-56 7-80 23-20 13-39 38-49 66l-3 9 3 9 9 19a124 124 0 00120 70zm693-3c41-8 70-30 89-67l9-19 3-9-3-9a128 128 0 00-130-89l-38 2 4 19c5 16 8 37 10 53v7h6a496 496 0 0057 2c6 2 11 8 12 14l2 8c3 7 0 18-6 22-6 5-9 5-41 5l-32 1c-1 4 0 11 3 17 2 5 2 8 3 17 0 10-1 16-5 24-2 3-2 4-1 4a284 284 0 0058-2zm-82-238c16-13 34-33 44-48 9-14 17-34 19-49 2-10 1-34-1-44l-12-34c-4-8-4-8-11-11l-17-7c-51-18-97-7-140 34-11 11-24 27-23 28l4 3a343 343 0 0146 29l22-19 23-21c8-4 18-2 24 5l6 6c11 6 11 20 0 27-3 2-4 2-10 2-6-1-7-1-9 1-2 3-2 3-2 8 1 7-1 11-9 20l-7 7 6 7a331 331 0 0141 60l6-4zm-575-36a409 409 0 0127-39l-9-10c-7-7-9-9-10-13v-9c2-6 5-11 9-13l7-4c4-4 9-6 14-5 3 0 6 2 14 9l10 8 8-6c11-10 18-14 25-14 4 0 11 3 15 6s9 12 9 15l1 2 14-8a365 365 0 0121-13c0-3-29-33-41-43-38-29-77-36-121-21l-19 7-8 4-3 8c-16 34-19 66-9 96a146 146 0 0036 58l10-15zm392-117l1-29c0-28-2-39-8-57-13-36-41-63-81-78l-9-3-9 3c-12 5-28 13-38 20-30 22-48 56-51 98v10h3a642 642 0 0045-10l14-2 1-12c0-12 2-17 7-22 4-3 9-5 15-4a107 107 0 0017 2c2 0 8 4 10 8l1 35v31h9a362 362 0 0170 14l3-4z" fill="#d7c8b4"/><path d="M484 989c-21-8-35-16-49-26-42-31-63-77-63-139l-1-14-11 10c-31 32-65 50-102 55a180 180 0 01-96-18l-13-7-5-10c-16-34-22-61-20-91 2-21 6-37 16-56 9-20 20-34 38-52l11-12-13-1c-70 0-120-27-150-81-10-16-19-40-19-47s9-31 19-47c29-53 80-81 149-81l12-1-10-11c-21-21-34-40-43-64-12-29-13-67-3-100 3-11 10-28 15-37l3-7 13-7c15-7 34-13 48-16 13-3 36-4 48-2 37 5 71 23 102 55l11 10 1-15c0-84 37-138 114-166l14-4c7 0 31 9 47 19 54 30 81 80 81 150l1 13 11-11c30-29 59-44 93-50 10-2 15-2 28-2 27 1 49 7 77 21l10 5 4 9c9 16 16 36 19 53 10 54-8 104-53 148l-8 9 14 1c70 0 120 27 150 81 10 16 19 40 19 47s-9 31-19 47c-30 54-80 81-151 81l-15 1 12 12c13 14 20 23 28 35 33 50 34 106 5 164-6 11-6 11-22 19a160 160 0 01-191-35l-11-11-1 12c0 69-28 120-81 149-17 10-40 19-47 19l-16-4zm24-27c33-12 61-35 76-63a176 176 0 0013-109 289 289 0 01-79 15h-4v32c0 33 0 34-5 39-3 3-11 4-16 2l-5-5c-3-4-3-5-4-36l-1-32-6-1c-8 0-38-5-53-9-21-6-20-6-21 0-2 11-3 39-2 49 5 52 30 89 75 111 9 4 21 9 24 9l8-2zM259 847c30-6 57-21 81-47 9-10 23-26 23-28l-5-3c-16-7-46-29-58-40l-5-4-24 24c-25 25-26 26-33 25-5-1-10-7-11-12-2-7 1-10 30-41l13-15 3-3-4-4-18-24-1-7c0-7 8-14 15-14 5 0 9 3 17 13a276 276 0 00465-46l-24-1c-20 0-23 0-28-2-12-4-21-10-27-20-18-28-5-65 27-75 6-2 9-2 23-2 15 0 18 0 20 2 5 4 5 10 0 15-2 2-3 2-20 2-16 0-18 1-22 3-6 3-10 7-14 13-2 5-3 6-3 15 0 8 1 9 3 14 4 6 8 10 14 13 4 2 6 2 39 2h34l5-3c6-3 10-7 13-13 2-4 2-6 2-13 0-9 0-10-2-15-4-7-9-11-17-14-9-4-12-11-6-17 2-2 4-3 7-3s4 0 5-3v-25a263 263 0 00-23-104 271 271 0 00-212-163c-12-2-18-2-40-2a275 275 0 00-275 295c0 2 0 2 4 2a187 187 0 0138 1c5 4 5 10 0 15-2 2-3 2-20 2s-18 1-23 3c-6 4-10 8-13 14-2 4-2 6-2 14s0 9 2 14c4 6 8 10 14 13 4 2 6 2 39 2 32 0 34 0 38-2 6-3 10-7 14-13 2-5 3-6 3-14 0-9-1-10-3-15-4-7-9-11-17-14-9-4-12-11-6-17 4-4 8-4 17 0 26 13 36 43 22 70-5 10-17 19-29 23-6 2-9 2-33 2h-26l-3 3-11 11-22 18c-36 31-54 61-57 98-2 22 3 47 14 71l4 8 9 4c14 7 32 12 47 14h33zm195-204l-6-5c-2-3-2-4-2-16 1-10 1-14 3-18 8-22 26-33 51-33s43 11 51 33c2 4 2 8 3 18 0 12 0 13-2 16-6 9-17 9-24 0-2-2-3-5-3-13-1-14-3-19-11-22-4-2-6-2-14-2s-10 0-14 2c-8 3-10 8-11 22 0 8-1 11-3 13-5 6-12 9-18 5zm-87-146c-10-3-17-7-26-15a54 54 0 01-17-41c0-15 5-29 15-40 13-13 26-19 44-19 32 0 58 26 58 58 0 17-5 29-17 42-9 8-17 13-27 15-8 2-22 2-30 0zm236 0c-10-2-18-7-27-15a54 54 0 01-17-42c0-25 17-48 41-56 37-11 76 17 76 57 0 16-5 28-17 41-9 8-17 13-28 15-7 2-21 2-28 0zm171 350c15-2 42-11 51-17a130 130 0 0019-93c-6-26-19-50-41-73-11-11-28-26-30-26l-2 2a9078 9078 0 00-31 49l-7 9-6 7 8 10 35 39c1 4 1 7-1 12-4 7-10 10-18 7l-25-24-22-22-4 4a355 355 0 01-64 43c0 3 23 29 34 38 20 18 44 30 67 34 9 2 26 2 37 1zM191 598c6 0 6 1 2-10-5-13-5-27 2-40 3-7 3-7 2-15l-1-12c0-8 2-7-32-7-30 1-31 1-35-1-6-3-7-6-7-13 0-6 0-6 3-10l4-3 20-2 33-1c14 0 14 0 14-8 0-10 5-33 11-57l3-16-9-1c-36-3-59-1-83 7-32 11-57 34-73 68l-7 16-2 7 2 7c3 10 11 25 18 36 27 42 75 61 135 55zm652 1a128 128 0 00119-92l2-7-2-7c-6-18-19-40-32-53-30-32-71-44-131-38l-8 1 3 16a368 368 0 0111 65l22 1 32 1 12 1 4 3c3 3 3 5 4 9 0 7-2 11-8 14-4 2-5 2-34 1h-31v2l-1 8-2 13c-1 7-1 7 1 13 6 12 6 27 1 38-4 10-4 10 4 11h34zM230 358c8-16 28-46 40-58l3-4-22-22-24-25-1-6c0-10 12-17 20-13l33 29 16 14 5-3a239 239 0 0146-32c19-12 17-10 12-17-7-9-27-29-37-36-28-23-54-32-85-31-21 1-37 5-57 15l-9 4-4 8c-17 37-19 73-6 106 5 13 16 30 27 42 8 9 36 35 39 35l4-6zm553-1c11-9 29-29 37-40 12-16 20-34 24-51a143 143 0 00-14-87c-3-6-4-7-11-10-8-4-26-10-36-13-12-2-34-3-45-1a161 161 0 00-101 71l7 5a319 319 0 0154 36c7 6 6 6 17-4 8-8 12-9 19-6 5 2 8 6 8 13 0 6-2 8-9 16l-7 8 6 8a353 353 0 0142 61l9-6zm-31-101c-11-3-14-17-5-25 4-4 9-4 15-2 8 4 11 13 7 20-5 6-10 9-17 7zm-155-47l2-18c5-62-15-108-56-135-11-7-26-15-36-18l-7-2-7 2-16 7c-46 22-72 59-76 111-1 9 0 34 2 47 0 7-2 7 19 2a367 367 0 0161-11l2-32c0-30 0-31 3-35 5-9 19-8 25 2l1 34v32h7l58 10c18 6 18 5 18 4z" fill="#a69490"/><path d="M486 988c-76-27-113-82-113-165l-1-15-13 12c-29 29-59 46-93 53-13 2-39 2-52 0-17-4-38-11-56-20l-7-3-7-13c-7-14-14-35-17-49l-1-30c0-19 0-21 2-31 9-33 24-59 51-86 7-6 12-12 12-13l-14-1c-66 0-114-23-144-70-10-15-25-49-25-57s15-42 25-57c30-46 78-70 143-70l13-1-10-12c-30-30-47-61-53-94-1-12-1-35 1-47 3-19 10-40 19-58 4-8 5-9 12-12 15-8 37-16 56-20 13-2 41-2 55 1 33 7 61 24 90 52 6 7 12 12 13 12l1-15c0-68 23-115 70-146 15-10 49-25 57-25s42 15 57 25c47 30 70 78 70 144l1 14c1 0 7-5 13-12 28-27 55-42 87-49 9-2 14-2 29-2 18 0 26 1 43 5 16 5 43 16 47 21 3 3 13 25 17 38 8 24 10 51 7 72-5 35-22 66-52 96-6 6-11 11-10 12l14 1c66 0 114 23 144 70 10 15 25 49 25 57s-15 42-25 57c-31 47-78 70-146 70l-15 1c0 1 5 7 12 13 46 46 63 97 51 151-4 18-16 50-22 56-4 5-29 16-46 20-51 15-98 5-142-30l-19-16-12-11-1 13c0 65-24 113-70 143-16 11-49 25-57 25l-14-4zm25-26c65-26 95-76 89-154-1-18-1-20-4-20l-15 4a355 355 0 01-68 12v32c0 34 0 36-6 40-7 4-15 2-19-4-1-3-2-6-2-35l-1-33-8-1c-17-2-40-6-54-10-20-5-20-5-21-1l-2 22c-4 74 25 122 89 148l11 3 11-3zM259 848c28-5 55-20 79-44 12-12 26-29 26-31l-3-4a362 362 0 01-66-45c-1 0-12 10-24 23l-24 24-7 1c-4 0-5-1-8-4-4-3-4-4-4-9s0-5 6-12a963 963 0 0140-44l-3-4-18-24c-4-10 3-20 12-20 5 0 9 3 15 12a274 274 0 00289 100 276 276 0 00179-147l-25-1c-29-1-32-1-43-9a49 49 0 010-79c11-7 15-8 36-9h19l3 3c3 3 3 4 3 6-2 7-3 7-23 8-17 0-19 1-23 3-6 3-11 8-14 14s-3 7-3 14c0 14 6 23 17 29l6 3h33c33 0 34 0 39-2 7-4 11-8 15-15 3-6 3-7 3-14 0-8 0-9-3-15-4-7-8-11-17-15-6-3-8-4-9-9 0-2 0-3 3-6 2-2 4-3 7-3s4 0 5-3a294 294 0 00-55-186 279 279 0 00-386-56 277 277 0 00-112 241l1 4 20-1h20l3 3c3 3 3 4 3 6-2 7-3 7-23 8-17 0-19 1-23 3-6 3-11 8-14 14s-3 7-3 15c0 7 0 8 3 14 4 7 8 11 15 15 5 2 6 2 39 2h33l6-3c11-6 17-15 17-29 0-7 0-8-3-14-4-7-8-11-17-15-6-3-8-4-9-9 0-2 0-3 3-6 4-4 7-4 15 0 18 9 28 25 28 45 0 18-9 33-24 42-10 5-14 6-43 6h-27l-2 3-13 11c-28 21-47 41-60 63-23 38-25 81-4 125 4 9 4 9 11 12 12 7 29 12 43 14 9 2 31 2 40 1zm197-205l-6-4c-2-3-3-4-3-12 0-17 4-30 13-40 11-10 23-15 40-15s29 5 40 15c9 10 13 23 13 40 0 9-1 9-4 13-5 4-10 5-15 2-6-3-7-6-8-17-1-15-4-20-14-24s-26-2-32 4c-4 5-5 9-6 20-1 10-2 14-6 17-4 2-9 2-13 1zm-87-147a58 58 0 01-5-110c8-3 23-4 32-2 21 6 37 22 42 42 2 8 2 21 0 28-5 21-22 38-42 42-8 2-20 2-27 0zm235 0c-20-4-37-22-42-42-2-7-2-20 0-28 5-20 21-36 42-42 9-2 24-1 32 2a58 58 0 01-32 110zm176 351c14-3 28-7 39-13l10-4 5-13c21-50 16-94-16-137-11-15-41-43-45-43l-4 4a386 386 0 01-44 64l20 23 23 25c3 6 2 11-3 16-2 3-3 3-8 3l-7-1-23-23-22-22-6 4a360 360 0 01-65 44c0 2 14 18 25 30 24 24 52 40 81 44 8 2 31 1 40-1zM196 599c3 0 3-2 0-6-7-12-7-33 1-46l2-4-1-15-2-15h-66l-4-3c-3-3-3-4-4-9 0-3 0-5 2-8 4-6 5-6 37-7l32-1c3-1 4-1 4-7 3-24 5-36 11-57 4-18 5-19 3-19l-19-2c-63-5-108 14-137 56-6 10-14 26-18 37l-2 7 2 7c6 18 19 40 31 54 21 22 50 35 86 39 8 1 37 0 42-1zm649 1c45-4 77-22 100-56 6-10 14-26 18-37l2-7-2-7c-6-18-19-40-31-54-28-29-70-43-123-39l-18 2c-3 0-3 1 3 21a344 344 0 0111 62l32 1c34 1 35 1 39 7l2 8c0 3-1 5-3 8l-4 4h-33l-33 1-2 9-1 15c-1 5-1 7 1 13 6 14 6 28 0 41-2 4-3 6-2 7 3 2 27 2 44 1zM230 361a360 360 0 0144-66l-22-22-23-24c-2-4-2-8 0-12 3-6 11-9 18-5l25 22c11 12 22 21 23 21l6-5a347 347 0 0162-43c0-3-19-24-32-36-20-17-41-29-60-35a141 141 0 00-96 13c-5 3-6 3-10 12-10 21-14 41-14 62 0 29 8 52 29 80 9 12 42 43 46 43 1 0 3-2 4-5zm552-3l18-15c15-16 25-29 33-46 18-35 18-68 2-110-6-15-7-16-18-21-14-5-27-10-39-12-15-2-38-1-51 2-24 7-47 21-68 42-13 13-24 27-24 29l6 4a372 372 0 0164 42c1 0 5-3 9-8 7-7 8-7 13-8 9-1 14 5 14 14 0 4-3 8-10 15l-7 7 6 8a341 341 0 0144 63l8-6zm-29-103c-5-1-9-6-10-10-1-7 6-16 13-16 10 0 16 10 12 18-3 7-8 10-15 8zm-330-49a402 402 0 0162-11l1-32c0-29 1-32 2-35 6-9 20-8 24 2l1 35-1 31h8a450 450 0 0178 13l2-18c5-62-14-107-56-136-10-6-26-14-37-18l-7-2-7 2c-18 6-40 19-54 31-27 26-41 65-39 111 0 15 2 30 3 31l2 1 18-5z" fill="#9f8a7d"/><path d="M487 988c-43-15-75-40-93-73-14-26-20-52-20-88 0-16-1-19-2-19l-15 13c-23 23-45 37-70 46-17 6-24 7-47 6-23 0-31-1-49-7-11-3-34-13-38-16-4-2-14-23-19-38-14-43-12-82 7-119 9-18 21-34 38-51l12-14c0-1-2-2-19-2l-28-1c-47-7-82-28-108-63-8-12-19-35-25-50l-3-12 3-12c6-15 17-38 25-50 31-42 75-64 135-64 12 0 17-1 18-2s-1-3-10-12c-38-38-56-79-54-123 1-25 7-46 20-73l5-11 12-6a158 158 0 01196 35l14 12c1 0 2-3 2-20l1-30c7-47 28-82 63-108 12-8 35-19 50-25l12-3 12 3c15 6 38 17 50 25 35 26 56 61 63 108l1 28c0 16 1 19 2 19l12-10c17-17 32-28 51-37 25-13 50-18 77-16 21 2 43 8 66 19l13 6 4 8c10 19 16 40 20 60 2 13 1 39-1 51-8 32-23 58-51 87l-11 13c1 1 5 2 19 2l29 1c47 7 82 28 108 63 8 12 19 35 25 50l3 12-3 12c-6 15-17 38-25 50-26 35-61 56-108 63l-30 1c-14 0-19 1-20 2-1 0 2 4 12 14 31 32 48 63 53 99 2 12 1 37-2 50s-9 31-16 46l-6 12-13 6c-40 19-79 24-116 14-27-7-54-24-78-48-9-9-13-12-13-9l-1 17c-1 61-22 104-64 135-15 10-54 28-62 28l-14-4zm20-24c10-4 26-12 35-18 30-19 48-46 56-84 4-18 4-69 0-74l-3-1a603 603 0 01-81 16l-2 1v32l-1 35c-4 6-11 8-17 5s-7-4-7-40c-1-35-1-34-8-34a375 375 0 01-76-14c-5 3-5 55-1 74 8 38 26 65 56 84a207 207 0 0042 20l7-2zM258 849c32-6 59-22 87-51 11-13 20-24 20-26l-5-4a334 334 0 01-65-45l-24 23c-18 19-24 24-27 25-9 3-17-5-16-15 1-3 3-5 34-37l13-15-5-7c-8-9-16-21-17-25-3-11 9-20 19-14l4 4a281 281 0 00265 112 285 285 0 00196-129c8-13 13-24 13-26l-25-1c-27 0-31-1-41-7a48 48 0 0112-86c6-2 10-2 27-2 11 0 12 0 15 2 3 3 3 7 0 10-2 3-2 3-20 3-17 1-18 1-23 3-7 4-12 9-15 16-4 8-4 19 0 27 3 7 9 13 16 16 5 2 5 2 39 2 33 0 33 0 38-2 7-3 13-9 16-16 4-8 4-19 0-27-4-7-9-13-17-16-9-4-12-10-7-15l7-2h5l1-5a292 292 0 00-30-145 285 285 0 00-207-149c-12-2-18-2-40-2-23 0-29 0-41 2a275 275 0 00-235 298h28c12 0 13 1 15 3 3 3 3 6 0 9-2 3-2 3-20 3-17 1-18 1-23 3-7 4-12 9-15 16-4 8-4 19 0 27 3 7 9 13 16 16 5 2 5 2 39 2 33 0 33 0 38-2 7-3 13-9 16-16 4-8 4-19 0-27-4-7-9-13-17-16-9-4-12-10-7-15 4-3 7-3 15 1 11 6 21 17 25 29 3 8 3 22 0 30-5 14-17 26-32 30-4 2-11 2-32 2h-27l-2 3-12 11c-40 30-63 58-74 90-10 28-8 61 6 93 5 13 7 15 15 19a131 131 0 0081 14zm196-208c-5-4-6-6-6-16 0-16 4-27 12-37 10-10 23-15 40-15s30 5 40 15c8 10 12 21 12 37 0 10-1 12-6 16-4 2-7 3-12 0-5-2-7-7-7-15 0-15-5-23-16-26-17-5-34 1-37 15l-1 11c0 8-2 13-7 15-5 3-8 2-12 0zm-86-146c-20-6-35-21-40-41-2-7-2-20 0-27 5-20 21-36 41-41 7-2 21-2 28 0 20 5 35 21 40 41 2 7 2 20 0 27-5 20-21 36-41 41-8 2-21 2-29 0zm235 0c-20-5-35-21-40-41l-2-13c0-26 17-48 42-55 7-2 21-2 28 0 20 5 36 21 41 41 2 7 2 20 0 27-5 20-21 36-41 41-8 2-21 2-29 0zm180 352c12-2 28-8 38-13l8-4 4-9c9-22 13-37 14-57 1-33-7-56-29-85-11-14-41-43-46-43l-3 4a380 380 0 01-45 65l21 24 23 25c2 3 1 11-2 14l-6 3c-7 2-9 0-31-22l-21-22c-2-3-5-2-10 3a331 331 0 01-65 43c0 5 29 36 42 46 24 18 42 26 70 30 6 1 28 0 38-2zM198 599c1-1 1-2-2-8-6-14-6-28 1-42l3-8-1-8-1-13c0-9 2-8-34-8-28 1-31 1-35-1s-7-8-6-13c0-4 4-9 8-10l34-1c25-1 31-1 32-3l1-9a392 392 0 0114-73c-4-4-56-4-74 0-38 8-65 26-84 56-6 9-14 25-17 35l-3 7 3 7c3 10 11 26 17 35 19 31 49 50 86 56l12 2a388 388 0 0046-1zm664-1c38-8 65-26 84-56 6-9 14-25 17-35l3-7-3-7c-3-10-11-26-17-35-19-30-46-48-84-56-18-4-71-4-73 0v3a545 545 0 0115 80c1 1 7 2 31 2l33 1c5 1 9 6 10 11 0 4-3 10-7 12-3 2-5 2-34 1-36 0-34-1-34 8l-2 14-1 9 3 8c6 13 5 31-1 42-3 4-3 6 0 7l26 1c20-1 26-1 34-3zM232 359a327 327 0 0143-64l-22-23-24-23c-3-6 0-14 5-16 3-2 10-2 13-1a506 506 0 0148 44l8-6a362 362 0 0161-42c0-4-20-27-34-38-42-37-84-47-134-30l-18 7c-8 4-9 5-12 11-12 23-19 59-15 84 6 30 21 56 48 82 13 13 25 23 28 23l5-8zm550 0c12-9 28-26 37-37 12-17 20-34 25-52a146 146 0 00-14-94c-2-5-3-6-12-10-12-5-26-9-37-12-12-2-36-2-47 0-22 5-41 15-61 31-14 11-38 37-38 41a360 360 0 0170 48l9-7c4-5 9-8 10-9 7-2 15 2 16 9 2 6 0 9-8 17l-8 10 6 8a341 341 0 0144 63l8-6zm-31-105l-4-4c-3-3-3-4-3-8 1-5 1-6 4-9 3-2 5-3 8-3 8 0 13 5 13 13s-9 14-18 11zm-327-48c16-4 46-9 55-9 7 0 7 1 8-33 0-25 1-32 2-35 4-8 15-9 21-1 2 3 2 5 2 35v33h2l11 2a374 374 0 0173 13c4-2 4-55 0-73-8-38-26-65-56-84-9-6-25-14-35-17l-7-3-7 3c-10 3-26 11-35 17-30 19-48 46-56 84-3 13-4 43-2 60 1 12 2 15 5 13l19-5z" fill="#907c7c"/></svg>