<?xml version="1.0" encoding="UTF-8"?>
<svg height="1000" width="1000" xmlns="http://www.w3.org/2000/svg"><path d="M485 991l-25-11c-60-30-90-82-90-154v-12l-11 11c-30 28-57 44-90 51-13 2-46 2-60-1-16-3-34-10-48-17l-13-6-5-10c-15-29-21-55-21-82 0-18 2-31 7-46 8-26 23-49 46-73l11-11h-12A162 162 0 015 500a162 162 0 01168-130h10l-9-10c-23-24-37-46-45-71-5-16-7-28-7-46 0-28 6-54 21-83l5-10 9-4c18-10 38-17 58-20 11-2 15-2 30-2 19 1 26 2 43 8 25 8 47 22 71 45l11 11v-13c0-63 22-109 67-142 16-11 53-28 63-28s47 17 63 28c45 32 67 79 67 141v11l11-10c29-27 56-42 87-49 12-2 45-2 58 0 16 3 31 9 50 17 12 6 14 7 19 17 20 41 26 81 16 118-7 29-22 55-47 81l-10 11h12a162 162 0 01169 130c0 10-17 47-28 63-33 45-79 67-142 67h-13l11 11c30 32 47 63 52 99 4 30-3 66-19 99l-6 13-14 6c-15 8-36 15-51 18-13 2-45 2-57 0a174 174 0 01-87-49l-11-10v10a162 162 0 01-130 168l-15-4z" fill="#fdf4e0"/><path d="M486 991c-30-11-52-24-70-42-31-31-46-72-46-127v-9l-11 11c-28 28-59 45-92 52-13 2-42 2-56-1-15-3-33-9-46-15-16-8-17-9-23-20-10-22-16-38-19-58-2-13-1-40 1-52 8-32 25-63 52-90l10-10h-8C92 630 36 591 8 513l-3-13 3-13c23-63 64-101 125-113 10-2 32-4 44-4h7l-9-9c-28-28-46-61-52-95-2-14-1-41 2-55 5-22 18-56 24-61l15-8c38-17 77-22 111-14 31 8 58 24 85 50l10 10v-9c0-12 2-34 4-46C386 72 424 31 487 8l13-3c7 0 33 11 49 20 54 30 81 82 81 153v8l8-8c30-30 65-48 101-53 12-2 35-1 48 2 18 3 37 10 54 19l8 4 5 11c17 32 24 64 21 94-3 38-20 72-52 105l-10 10h9c86 0 142 39 170 117l3 13-3 13c-23 63-64 101-125 113a279 279 0 01-55 4l10 11c29 29 46 61 52 94 3 20 2 46-5 67-5 19-16 45-21 50-4 3-23 12-37 16-44 15-84 13-122-7-17-8-35-21-50-36l-9-9v7c0 70-27 122-81 152-16 9-43 20-49 20l-14-4zm25-33c31-12 56-32 69-57 11-20 16-39 17-67l-2-41c-1-1-3 0-12 2l-12 3 2 5c3 7 3 12 2 19-3 7-10 15-18 17-6 2-26 5-34 5-7 0-7 0-7 13l-1 15c-3 5-8 9-14 10-2 0-6 1-8 3-8 4-19 2-25-5-5-5-6-9-6-23 0-15 1-14-16-17-11-1-36-7-41-9-2 0-2 0-2 11 2 21 7 42 17 59 14 25 39 46 72 58 8 3 8 3 19-1zM250 845a132 132 0 0084-42 632 632 0 00-39-26l-12-8-10 9-12 11c-5 3-13 3-18 0-5-2-10-8-11-12 0-1-1-4-3-5-3-3-5-9-5-13 0-5 3-10 12-19l8-9-6-6a398 398 0 01-39-55l-2-4-4 4c-7 6-19 23-25 34a121 121 0 00-6 100c6 17 9 23 15 26a169 169 0 0061 16l12-1zm530-2c10-1 26-7 37-12 9-4 9-4 15-19 8-19 11-35 11-53 0-38-17-71-55-105l-12-11-3-2-9 15c-4 8-11 18-15 23l-6 8 5 3c9 5 15 13 15 23 0 6-1 10-5 16l-3 4 8 8 9 11c2 5 1 11-1 15l-6 12c-3 8-11 13-21 12-6-1-10-3-19-14l-8-8-12 8a415 415 0 01-40 27c0 2 16 15 26 21a120 120 0 0089 18zM168 596l-2-5c-3-11-7-33-9-50l-1-5h-11c-10 0-12-1-16-3l-8-8c-2-4-2-5-3-15 0-13 1-18 5-22 5-4 9-5 22-5h10v-6c0-8 2-20 5-25 6-11 21-16 33-11l5 3 5-19c4-14 5-20 4-20l-41-2c-28 1-47 6-67 17-25 14-47 40-58 73l-3 7 3 7c3 11 12 28 18 36 18 26 43 43 72 50 16 3 37 5 37 3zm696-2c34-8 58-24 77-51 6-8 15-25 18-36l3-7-3-7c-3-11-12-28-18-37-19-27-44-43-79-50-11-2-14-2-39-2l-29 1 3 16a409 409 0 0110 61 1985 1985 0 0066 4c4 2 8 7 9 12l2 8c3 8 2 16-3 22-7 7-8 7-43 7l-33 1c-1 4 0 10 3 16a53 53 0 01-2 41l-1 3 24 1c20-1 25-1 35-3zm-77-244c28-25 45-50 53-79 2-7 2-12 3-23 0-23-3-38-13-62-5-13-4-12-22-19-21-8-43-12-62-10-34 3-63 20-94 54l-11 12-2 3 2 1a349 349 0 0148 29l21-19c25-23 28-25 38-22 3 1 7 3 10 7l9 8c5 3 6 7 6 14-1 10-9 16-19 15-5-1-6-1-8 1s-2 3-1 7c1 7-3 13-11 21l-6 6 5 5c9 10 22 29 32 45 6 11 10 16 11 15l11-9zm-582-30a395 395 0 0125-38c0-1-3-5-8-8-8-8-11-13-11-20 0-8 5-15 14-20l6-4c4-3 9-4 14-3 3 1 7 3 13 9 9 9 9 9 14 3l18-14c6-2 15-1 21 1a28 28 0 0115 20l7-3 16-10 10-6-3-4c-8-10-19-22-21-22-5 0-5 0-5-2 1-2 0-4-3-7-16-14-40-28-59-32-23-6-52-4-77 6-19 8-18 7-23 17-9 19-13 36-14 55-1 27 7 52 24 76 8 11 16 20 17 20l10-14zm391-121a353 353 0 00-2-63c-8-34-24-58-51-77-8-6-25-15-36-18l-7-3-7 3c-11 3-28 12-36 18-33 22-51 56-54 98 0 10 0 10 2 10a401 401 0 0155-12h3v-9l1-15c4-11 15-17 26-14l10 2c6 0 12 3 14 9 2 3 2 6 2 34v31h8a369 369 0 0170 14c1 0 2-2 2-8z" fill="#f5ebd8"/><path d="M487 991c-32-11-60-29-78-50-25-30-38-68-38-114v-15l-12 11c-24 24-46 38-71 46-17 6-24 7-43 8-22 0-36-2-57-9-15-5-36-14-40-18-3-4-13-26-17-39-20-62-5-120 46-171l10-10-15-1c-45 0-84-13-113-38-21-18-40-48-51-80l-3-11 3-11c8-24 22-48 36-65 30-34 75-53 127-53h14l-10-11c-49-50-64-108-44-169 4-13 14-35 17-39 4-4 25-13 40-19a162 162 0 01170 45l13 12v-16c0-64 23-111 70-143 12-7 33-18 48-23l11-3 11 3c32 11 62 30 80 51 25 29 38 68 38 113v15l11-10c56-55 121-67 192-35 16 8 16 8 22 18a162 162 0 01-31 199l-11 12h15c46 0 84 13 114 38 21 18 40 48 51 80l3 11-3 11c-11 32-30 62-51 80-30 25-67 38-115 38h-16l11 12a162 162 0 0132 201l-4 9-10 5c-20 10-39 17-59 20-13 2-41 1-53-1-31-7-60-24-87-50l-11-10v14c0 70-32 123-92 152-11 5-34 14-37 14l-13-4zm26-33c31-12 55-32 69-58 11-21 15-39 16-69l-2-40-26 7c-1 1 0 3 1 5 4 7 4 17 0 23-6 9-13 13-33 15l-17 2-5 1-1 12c0 13-1 16-5 21-3 2-8 4-12 4l-5 1c-6 5-15 4-22-1-6-4-7-8-8-25v-14l-17-3a430 430 0 01-42-9c-2-1-2 18 1 32 8 41 30 70 67 89 13 7 27 12 29 11l12-4zM263 844c20-4 38-13 58-28 11-8 15-13 14-15l-13-8a382 382 0 01-39-26l-11 10c-9 9-11 11-15 12-10 2-18-2-22-11l-5-8c-3-2-5-7-5-11 0-5 3-9 12-18l8-10-6-8a407 407 0 01-42-59l-14 15a125 125 0 00-17 136l4 12 9 5c26 13 58 18 84 12zm519 0c12-2 28-8 37-13 7-3 7-3 11-11a136 136 0 008-97c-6-20-18-39-37-58-11-11-26-25-28-25l-4 6a331 331 0 01-27 43l3 1c8 2 16 13 16 23 0 6-1 9-6 17l-1 3 8 9 9 11c2 4 1 10-2 16l-4 7c-3 8-10 13-19 13-7 0-10-2-20-12-4-6-9-10-9-10l-14 9a395 395 0 01-40 28l27 22c29 19 59 25 92 18zM170 596a364 364 0 01-13-60c-1-1-3-2-12-2-12-1-16-2-20-6-4-5-5-9-5-15v-10c-1-4 0-10 4-14 5-4 6-4 20-5h12v-8c2-18 6-26 13-31 8-6 19-6 26-1 3 2 5 2 5-1l5-20 4-19-40-2c-16 1-23 1-31 3-41 8-70 30-89 67l-9 19-3 9 3 9c10 26 26 49 45 64 13 10 34 18 53 22 14 3 15 3 24 3 8 0 8 0 8-2zm692-1c41-8 70-30 89-67l9-19 3-9-3-9-9-19c-19-37-48-59-89-67-16-3-64-4-69-1-1 1 0 4 3 17 4 16 8 39 10 54v8h6a495 495 0 0057 2c6 2 11 8 12 14l2 8c4 10-2 23-14 26l-34 1-31 1c-1 4 0 11 3 17 5 12 4 29-2 41l-1 4a284 284 0 0058-2zm-82-238c10-8 28-26 34-34 13-17 19-28 25-44a136 136 0 00-9-96c-4-9-4-9-11-12-9-5-25-11-37-13-14-3-36-3-47-1-27 6-49 19-73 42-11 10-24 26-23 27l5 4a340 340 0 0145 28l22-19c11-10 21-20 24-21l8-2c4 0 12 3 14 7l7 6c10 6 11 19 1 26-3 2-5 2-10 2l-10 2c-2 2-2 3-2 8 1 7-1 11-9 20l-7 7 6 7a342 342 0 0141 60l6-4zm-575-35a395 395 0 0127-40c0-1-3-5-8-9l-9-10c-4-9-2-20 6-24l8-6c10-8 16-8 28 4l10 8 4-3 10-8c9-8 16-10 24-8 9 2 17 10 18 19l2 3 14-8a365 365 0 0121-13c0-3-28-33-41-43-21-16-43-25-66-28-22-3-49 3-74 14l-8 4-3 7c-16 34-19 67-9 97a146 146 0 0036 58l10-14zm392-117a331 331 0 00-2-67c-8-41-30-70-67-89l-19-9-9-3-9 3c-26 10-49 26-64 45-10 13-18 34-22 53-3 14-3 31-1 30a1323 1323 0 0041-9l18-3c2 0 2 0 2-11 0-15 2-21 11-25 4-2 5-2 10-2l11 1c7 1 10 2 13 4 5 5 5 6 5 40v31h9c15 2 39 6 54 10 18 5 18 5 19 1z" fill="#fdb9cd"/><path d="M487 991c-32-11-60-29-78-50-25-30-38-68-38-114v-15l-12 11c-24 24-46 38-71 46-17 6-24 7-43 8-22 0-36-2-57-9-15-5-36-14-40-18-3-4-13-26-17-39-20-62-5-120 46-171l10-10-15-1c-45 0-84-13-113-38-21-18-40-48-51-80l-3-11 3-11c8-24 22-48 36-65 30-34 75-53 127-53h14l-10-11c-49-50-64-108-44-169 4-13 14-35 17-39 4-4 25-13 40-19a162 162 0 01170 45l13 12v-16c0-64 23-111 70-143 12-7 33-18 48-23l11-3 11 3c32 11 62 30 80 51 25 29 38 68 38 113v15l11-10c56-55 121-67 192-35 16 8 16 8 22 18a162 162 0 01-31 199l-11 12h15c46 0 84 13 114 38 21 18 40 48 51 80l3 11-3 11c-11 32-30 62-51 80-30 25-67 38-115 38h-16l11 12a162 162 0 0132 201l-4 9-10 5c-20 10-39 17-59 20-13 2-41 1-53-1-31-7-60-24-87-50l-11-10v14c0 70-32 123-92 152-11 5-34 14-37 14l-13-4zm26-33c31-12 55-32 69-58 11-21 15-39 16-69l-2-40-26 7c-1 1 0 3 1 5 4 7 4 17 0 23-6 9-13 13-33 15l-17 2-5 1-1 12c0 13-1 16-5 21-3 2-8 4-12 4l-5 1c-6 5-15 4-22-1-6-4-7-8-8-25v-14l-17-3a430 430 0 01-42-9c-2-1-2 18 1 32 8 41 30 70 67 89 13 7 27 12 29 11l12-4zM263 844c20-4 38-13 58-28 11-8 15-13 14-15l-13-8a382 382 0 01-39-26l-11 10c-9 9-11 11-15 12-10 2-18-2-22-11l-5-8c-3-2-5-7-5-11 0-5 3-9 12-18l8-10-6-8a407 407 0 01-42-59l-14 15a125 125 0 00-17 136l4 12 9 5c26 13 58 18 84 12zm519 0c12-2 28-8 37-13 7-3 7-3 11-11a136 136 0 008-97c-6-20-18-39-37-58-11-11-26-25-28-25l-4 6a331 331 0 01-27 43l3 1c8 2 16 13 16 23 0 6-1 9-6 17l-1 3 8 9 9 11c2 4 1 10-2 16l-4 7c-3 8-10 13-19 13-7 0-10-2-20-12-4-6-9-10-9-10l-14 9a395 395 0 01-40 28l27 22c29 19 59 25 92 18zM303 597c6-3 10-7 13-13 3-5 3-7 3-13s-1-9-3-14c-4-7-6-9-15-14-6-3-8-4-10-8l-1-4h-17l-1 3c-3 6-6 7-24 7-16 0-16 0-22 3-10 5-16 14-16 27 0 11 6 21 16 26l6 3 33-1c32 0 34 0 38-2zm470 0c6-3 10-7 13-13 3-5 3-7 3-13s-1-9-3-14c-4-7-6-9-15-14-6-3-8-4-9-8l-2-4h-17l-1 3c-3 6-6 7-24 7-16 0-16 0-22 3-10 5-16 14-16 27 0 11 6 21 16 26l6 3 33-1c32 0 34 0 38-2zm-603-1a364 364 0 01-13-60c-1-1-3-2-12-2-12-1-16-2-20-6-4-5-5-9-5-15v-10c-1-4 0-10 4-14 5-4 6-4 19-5h12l1-8c2-18 6-26 13-31 8-6 19-6 26-1 3 2 5 2 5-1l5-20 4-19-40-2c-16 1-23 1-31 3-41 8-70 30-89 67l-9 19-3 9 3 9c10 26 26 49 45 64 13 10 34 18 53 22 14 3 15 3 24 3 8 0 8 0 8-2zm692-1c41-8 70-30 89-67l9-19 3-9-3-9-9-19c-19-37-48-59-89-67-16-3-64-4-69-1-1 1 0 4 3 17 4 16 8 39 10 54v8h6a495 495 0 0057 2c6 2 11 8 12 14l2 8c4 10-2 23-14 26l-34 1-31 1c-1 4 0 11 3 17 5 12 4 29-2 41l-1 4a284 284 0 0058-2zm-82-238c10-8 28-26 34-34 13-17 19-28 25-44a136 136 0 00-9-96c-4-9-4-9-11-12-9-5-25-11-37-13-14-3-36-3-47-1-27 6-49 19-73 42-11 10-24 26-23 27l5 4a340 340 0 0145 28l22-19c11-10 21-20 24-21l8-2c4 0 12 3 14 7l7 6c10 6 11 19 1 26-3 2-5 2-10 2l-10 2c-2 2-2 3-2 8 1 7-1 11-9 20l-7 7 6 7a342 342 0 0141 60l6-4zm-575-35a395 395 0 0127-40c0-1-3-5-8-9l-9-10c-4-9-2-20 6-24l8-6c10-8 16-8 28 4l10 8 4-3 10-8c9-8 16-10 24-8 9 2 17 10 18 19l2 3 14-8a365 365 0 0121-13c0-3-28-33-41-43-21-16-43-25-66-28-22-3-49 3-74 14l-8 4-3 7c-16 34-19 67-9 97a146 146 0 0036 58l10-14zm392-117a331 331 0 00-2-67c-8-41-30-70-67-89l-19-9-9-3-9 3c-26 10-49 26-64 45-10 13-18 34-22 53-3 14-3 31-1 30a1323 1323 0 0041-9l18-3c2 0 2 0 2-11 0-15 2-21 11-25 4-2 5-2 10-2l11 1c7 1 10 2 13 4 5 5 5 6 5 40v31h9c15 2 39 6 54 10 18 5 18 5 19 1z" fill="#d6cdca"/><path d="M485 990c-66-24-104-70-112-137a273 273 0 01-2-42l-12 11c-33 33-67 50-106 54-29 3-59-4-92-19-11-6-13-7-17-16-20-40-26-81-17-116 8-31 24-58 50-84l11-12-16-1c-46 0-83-12-113-38-20-18-39-47-49-77l-4-13 4-13c10-30 29-59 49-77 30-25 65-38 111-38l16-1-10-11c-48-48-63-103-46-162 5-18 15-42 20-47l15-8c51-23 97-24 142-2 17 9 34 21 51 38l13 12 1-17c0-48 12-84 38-115 18-20 47-39 77-49l13-4 13 4c30 10 59 29 77 49 26 30 38 67 38 113l1 16 10-9c32-32 66-49 105-53 28-3 62 4 92 19l13 7 4 9c9 18 15 35 19 53 2 12 2 45 0 57-7 32-23 61-51 89l-10 11 16 1c47 0 84 12 114 38 20 18 39 47 49 77l4 13-4 13c-16 46-44 81-83 99-24 11-49 16-81 16l-17 1 11 12c28 29 45 57 52 90 2 12 2 45 0 57-4 18-10 35-19 53l-5 10-11 5c-34 16-63 23-93 20-38-3-72-21-105-53l-10-9-1 16c-1 71-31 121-90 150-13 6-35 14-38 14l-15-4zm26-31c38-14 63-37 76-69a187 187 0 009-99c-1-1-26 5-27 7l1 6c4 7 4 14 0 21-4 9-12 13-32 15l-17 2-5 1-1 13c0 11-1 14-2 17-3 4-9 7-14 7l-7 2c-5 4-13 3-19 0-7-5-8-9-9-26l-1-14-16-4a420 420 0 01-45-8c-2 1 0 22 3 35 10 45 36 75 82 94l13 4 11-4zM260 846a137 137 0 0076-44l-13-9a355 355 0 01-40-27l-11 10c-12 12-16 14-24 12-6-2-9-4-12-10l-6-9c-3-3-5-9-4-14 1-2 5-8 11-13l9-12-6-7a408 408 0 01-42-60c-2-1-18 19-27 33-22 34-24 74-8 115 6 16 7 17 13 20 27 14 59 19 84 15zm517 0c12-2 24-6 37-12l12-4 3-7c9-16 15-40 16-59 1-37-15-72-49-105l-23-20-4 6a331 331 0 01-28 44l4 2c7 2 14 11 15 19 1 4-1 12-4 17l-3 5 8 10c12 13 13 17 6 28l-3 7c0 2-7 9-12 11-4 1-9 1-14-2-1 0-7-5-11-10l-10-10-13 9a390 390 0 01-42 28 142 142 0 0074 43h41zM303 597c6-3 10-7 13-13 3-5 3-7 3-13s-1-9-3-14c-4-7-6-9-15-14-6-3-8-4-10-8l-1-4h-17l-1 3c-3 6-6 7-24 7-16 0-16 0-22 3-10 5-16 14-16 27 0 11 6 21 16 26l6 3 33-1c32 0 34 0 38-2zm470 0c6-3 10-7 13-13 3-5 3-7 3-13s-1-9-3-14c-4-7-6-9-15-14-6-3-8-4-9-8l-2-4h-17l-1 3c-3 6-6 7-24 7-16 0-16 0-22 3-10 5-16 14-16 27 0 11 6 21 16 26l6 3 33-1c32 0 34 0 38-2zm-603 1l-3-14-8-45c0-5-2-6-14-6s-16-2-21-8c-2-3-2-4-3-15-1-15 0-19 7-23 3-2 5-2 15-2l12-1 3-12 2-15c4-9 14-16 23-16 3 0 11 2 13 5 2 2 4 1 5-4a430 430 0 018-36c1-3-3-4-26-5-57-2-98 16-124 53-6 9-17 29-20 39l-2 7 2 7 8 19c18 36 45 58 82 68 15 3 38 6 41 4zm680 0c40-6 70-22 91-53 6-8 17-28 20-38l2-7-2-7c-3-10-14-30-20-38-26-38-67-56-124-54-22 1-26 2-25 5l3 15c4 14 9 38 10 51s-4 12 32 12c29 1 31 1 35 3s8 8 8 12l2 7c2 7 1 13-2 18-5 8-6 8-43 9h-32l-1 3c-2 4-1 8 2 15 5 13 5 28 0 40l-3 6c0 2 30 3 47 1zm-68-242c43-36 65-76 63-117l-2-20-13-39c-4-7-4-7-12-11-11-5-29-11-41-13-20-3-42-1-61 6-22 8-47 26-67 50-13 14-13 14-9 16a455 455 0 0150 31s10-8 20-19l24-21 8-2c5 0 13 3 15 7l6 5c5 3 8 6 9 11 0 5-3 12-8 15-3 2-4 2-10 2-6-1-7-1-9 2-3 2-3 3-2 9 0 7-1 9-9 18l-7 8 3 5a357 357 0 0144 63l8-6zm-576-35a390 390 0 0127-39l-8-9c-9-8-13-15-12-21s4-10 10-14l7-5c2-3 7-5 11-5 5 0 11 4 18 12l8 6 10-8c9-8 13-10 19-12 5 0 13 2 18 5 4 3 9 12 9 16 0 3 2 3 11-3a417 417 0 0127-17l-21-25c-25-25-52-41-80-46-11-2-34-1-46 1-11 3-24 7-34 12s-10 5-17 22a126 126 0 0013 123c7 10 19 23 20 23l10-16zm391-117l2-21c2-57-16-98-53-124-9-6-29-17-39-20l-7-2-7 2c-10 3-30 14-38 20-26 18-43 44-50 76-3 13-5 32-3 33 1 1 5 0 16-2l29-6c21-3 19-2 19-15 0-15 2-20 10-24 4-2 5-2 11-2l11 1c7 0 12 3 15 9 2 4 2 5 1 34v31h3l11 1c16 2 54 9 63 13 4 2 5 1 6-4z" fill="#fde787"/><path d="M485 990c-66-24-104-70-112-137a273 273 0 01-2-42l-12 11c-33 33-67 50-106 54-29 3-59-4-92-19-11-6-13-7-17-16-20-40-26-81-17-116 8-31 24-58 50-84l11-12-16-1c-46 0-83-12-113-38-20-18-39-47-49-77l-4-13 4-13c10-30 29-59 49-77 30-25 65-38 111-38l16-1-10-11c-48-48-63-103-46-162 5-18 15-42 20-47l15-8c51-23 97-24 142-2 17 9 34 21 51 38l13 12 1-17c0-48 12-84 38-115 18-20 47-39 77-49l13-4 13 4c30 10 59 29 77 49 26 30 38 67 38 113l1 16 10-9c32-32 66-49 105-53 28-3 62 4 92 19l13 7 4 9c9 18 15 35 19 53 2 12 2 45 0 57-7 32-23 61-51 89l-10 11 16 1c47 0 84 12 114 38 20 18 39 47 49 77l4 13-4 13c-16 46-44 81-83 99-24 11-49 16-81 16l-17 1 11 12c28 29 45 57 52 90 2 12 2 45 0 57-4 18-10 35-19 53l-5 10-11 5c-34 16-63 23-93 20-38-3-72-21-105-53l-10-9-1 16c-1 71-31 121-90 150-13 6-35 14-38 14l-15-4zm26-31c38-14 63-37 76-69a187 187 0 009-99c-1-1-26 5-27 7l1 6c4 7 4 14 0 21-4 9-12 13-32 15l-17 2-5 1-1 13c0 11-1 14-2 17-3 4-9 7-14 7l-7 2c-5 4-13 3-19 0-7-5-8-9-9-26l-1-14-16-4a420 420 0 01-45-8c-2 1 0 22 3 35 10 45 36 75 82 94l13 4 11-4zM260 846a137 137 0 0076-44l-13-9a355 355 0 01-40-27l-11 10c-12 12-16 14-24 12-6-2-9-4-12-10l-6-9c-3-3-5-9-4-14 1-2 5-8 11-13l9-12-6-7a408 408 0 01-42-60c-2-1-18 19-27 33-22 34-24 74-8 115 6 16 7 17 13 20 27 14 59 19 84 15zm517 0c12-2 24-6 37-12l12-4 3-7c9-16 15-40 16-59 1-37-15-72-49-105l-23-20-4 6a331 331 0 01-28 44l4 2c7 2 14 11 15 19 1 4-1 12-4 17l-3 5 8 10c12 13 13 17 6 28l-3 7c0 2-7 9-12 11-4 1-9 1-14-2-1 0-7-5-11-10l-10-10-13 9a390 390 0 01-42 28 142 142 0 0074 43h41zm-236-76a267 267 0 00194-128c9-15 11-20 10-21h-23l-28-1a52 52 0 01-30-73c3-7 15-19 22-22 9-5 17-6 33-6 17 0 20 1 23 7 2 4 2 4 0 8-3 6-6 7-24 7-14 0-16 0-20 2-8 4-11 7-15 14-3 5-3 7-3 14 0 11 6 21 16 26 4 2 6 2 39 2 32 0 34 0 38-2 6-3 10-7 13-13 3-5 3-7 3-13s-1-9-3-14c-4-7-6-9-15-14-7-3-8-4-10-8-2-5-2-5-1-8 2-4 6-6 10-6 3-1 4-1 4-7a281 281 0 00-80-208c-27-27-52-44-85-58a256 256 0 00-149-19c-59 8-110 34-153 77a267 267 0 00-81 204l1 10 18-1c21 0 24 1 27 7 2 4 2 4 0 8-3 6-6 7-24 7-14 0-16 0-21 2-7 4-10 7-14 14-3 5-3 7-3 14 0 11 6 21 16 26 4 2 6 2 39 2 32 0 34 0 38-2 6-3 10-7 13-13 3-5 3-7 3-13s-1-9-3-14c-4-7-6-9-15-14-7-3-8-4-10-8-2-5-2-5-1-8 4-7 11-8 21-3 13 6 22 16 27 29 3 9 3 25 1 33-6 15-17 27-32 33-6 2-7 2-34 2h-27l-3 4-3 4 2 4 13 22 5-1c9-4 14-1 23 12s36 40 52 52a278 278 0 00206 52zm-63-85c-60-9-105-49-113-101-2-15-1-22 6-27 3-2 4-3 128-3h125l3 2c8 5 10 13 8 27-8 60-67 105-136 104l-21-2zM312 473l-6-6c-3-5-3-16 0-27a82 82 0 01148-16c7 14 11 31 9 38-3 10-17 14-25 7-4-3-6-7-7-14-2-13-11-26-24-33-16-8-37-7-52 3-11 7-17 18-19 31-1 10-4 14-9 17-5 2-10 2-15 0zm361 0c-5-3-8-7-9-17-2-18-14-32-32-37-8-2-20-3-28-1-18 4-33 20-35 37-1 7-3 11-7 14-8 7-22 3-25-7-2-4-1-13 3-23 15-47 70-68 115-46 23 12 41 39 41 63 0 6 0 8-2 11-4 7-14 10-21 6zM170 598l-3-14-8-45c0-5-2-6-14-6s-16-2-21-8c-2-3-2-4-3-15-1-15 0-19 7-23 3-2 5-2 15-2l12-1 3-12 2-15c4-9 14-16 23-16 3 0 11 2 13 5 2 2 4 1 5-4a430 430 0 018-36c1-3-3-4-26-5-57-2-98 16-124 53-6 9-17 29-20 39l-2 7 2 7 8 19c18 36 45 58 82 68 15 3 38 6 41 4zm680 0c40-6 70-22 91-53 6-8 17-28 20-38l2-7-2-7c-3-10-14-30-20-38-26-38-67-56-124-54-22 1-26 2-25 5l3 15c4 14 9 38 10 51s-4 12 32 12c29 1 31 1 35 3s8 8 8 12l2 7c2 7 1 13-2 18-5 8-6 8-43 9h-32l-1 3c-2 4-1 8 2 15 5 13 5 28 0 40l-3 6c0 2 30 3 47 1zm-68-242c43-36 65-76 63-117l-2-20-13-39c-4-7-4-7-12-11-11-5-29-11-41-13-20-3-42-1-61 6-22 8-47 26-67 50-13 14-13 14-9 16a455 455 0 0150 31s10-8 20-19l24-21 8-2c5 0 13 3 15 7l6 5c5 3 8 6 9 11 0 5-3 12-8 15-3 2-4 2-10 2-6-1-7-1-9 2-3 2-3 3-2 9 0 7-1 9-9 18l-7 8 3 5a357 357 0 0144 63l8-6zm-576-35a390 390 0 0127-39l-8-9c-9-8-13-15-12-21s4-10 10-14l7-5c2-3 7-5 11-5 5 0 11 4 18 12l8 6 10-8c9-8 13-10 19-12 5 0 13 2 18 5 4 3 9 12 9 16 0 3 2 3 11-3a417 417 0 0127-17l-21-25c-25-25-52-41-80-46-11-2-34-1-46 1-11 3-24 7-34 12s-10 5-17 22a126 126 0 0013 123c7 10 19 23 20 23l10-16zm391-117l2-21c2-57-16-98-53-124-9-6-29-17-39-20l-7-2-7 2c-10 3-30 14-38 20-26 18-43 44-50 76-3 13-5 32-3 33 1 1 5 0 16-2l29-6c21-3 19-2 19-15 0-15 2-20 10-24 4-2 5-2 11-2l11 1c7 0 12 3 15 9 2 4 2 5 1 34v31h3l11 1c16 2 54 9 63 13 4 2 5 1 6-4z" fill="#d7c8b4"/><path d="M488 991a161 161 0 01-116-163l-1-17-12 11c-50 49-103 65-164 48-14-4-40-15-45-20-4-3-16-29-20-45-8-29-9-57-2-82 7-29 24-56 49-81l11-13-16-1c-32 0-56-5-80-17-40-19-68-54-84-102l-2-9 2-9c16-48 44-83 84-102 24-12 47-17 79-17l15-1-10-11c-27-27-43-56-50-88-3-14-3-43-1-57 5-23 18-57 25-64 4-3 26-13 39-17 55-18 105-8 152 29a279 279 0 0130 28l1-18c0-33 5-57 17-82 19-39 54-67 102-83l9-2 9 2c48 16 83 44 102 84 12 24 17 48 17 80l1 16 10-9c33-32 66-49 105-53 28-3 60 4 91 19l13 6 6 12c7 14 15 37 18 51 2 13 2 45 0 57-7 32-23 60-50 89l-11 11 17 1c32 0 56 5 81 17 39 19 67 54 83 102l2 9-2 9c-16 48-44 83-83 102-25 12-49 17-82 17l-18 1 11 12c28 29 45 57 52 90 2 12 2 44 0 57-3 14-10 35-17 50l-7 13-11 5c-20 10-37 15-55 19-12 2-36 2-47 0-35-6-66-23-95-51l-11-10-1 15a161 161 0 01-129 165l-11-3zm23-31c45-18 73-48 83-91 4-17 5-28 5-51-1-24-2-28-4-28l-27 8a240 240 0 01-52 8l-1 32-2 34c-3 4-7 7-14 8-4 0-5 0-8-2-6-5-7-8-7-25l-1-32v-16h-8a341 341 0 01-69-14c-1 0-2 0-2 5-2 16-3 44-2 53 5 41 22 71 52 92 13 10 39 22 46 22l11-3zM251 847c11-1 22-4 31-7a149 149 0 0064-48l15-19-5-3a335 335 0 01-61-43l-23 23-24 23-8 2c-4 0-5-1-9-4l-5-8c-1-8 0-10 11-21l34-39-3-4c-4-4-17-22-18-26-2-5-1-10 2-14l3-2-4-5-7-14-5-9-5 3a400 400 0 00-51 46c-34 44-40 87-18 138l5 12 10 5c17 8 38 14 58 15l13-1zm528-2c12-1 27-6 38-12l10-4 3-8a126 126 0 00-16-143c-11-15-39-40-41-39l-4 4a341 341 0 01-35 55l-6 7 10 12 14 15 10 11c7 8 9 11 9 16s-5 14-9 15c-4 2-9 1-13-1l-23-23-22-21-5 4a322 322 0 01-62 41l16 20 12 13 14 12c33 25 63 33 100 26zm-238-75a267 267 0 00194-128c9-15 11-20 10-21h-23l-28-1a52 52 0 01-30-73c3-7 15-19 22-22 9-5 17-6 33-6 17 0 20 1 23 7 2 4 2 4 0 8l-4 5c-2 1-8 2-20 2-16 0-18 1-22 3-10 5-16 15-16 27 0 8 2 15 8 21 9 8 10 8 47 8 36 0 37 0 46-8 6-6 8-13 8-21l-2-12c-2-6-10-14-17-16-5-2-7-4-9-9-2-4-2-4 0-7 1-4 5-6 9-6 3-1 4-1 4-7a281 281 0 00-80-208c-27-27-52-44-85-58a256 256 0 00-149-19c-59 8-110 34-153 77a267 267 0 00-81 204l1 10 18-1c21 0 24 1 27 7 2 4 2 4 0 8l-4 5c-2 1-8 2-20 2-16 0-18 1-22 3-10 5-16 15-16 27 0 8 2 15 8 21 9 8 10 8 47 8 26 0 31 0 36-2 6-2 14-10 16-16 2-7 2-16 0-23-2-6-10-14-17-16-5-2-7-4-9-9-2-4-2-4 0-7 3-7 10-8 20-3 13 6 22 16 27 30 3 8 3 24 1 32-6 15-17 27-32 33-6 2-7 2-34 2h-27l-3 4-3 4 2 4 13 22 5-1c9-4 14-1 23 12s36 40 52 52a278 278 0 00206 52zm-63-85c-60-9-105-49-113-101-2-15-1-22 6-27 3-2 4-3 128-3h125l3 2c8 5 10 13 8 27-8 60-67 105-136 104l-21-2zM312 473l-6-6c-3-5-3-16 0-27a82 82 0 01148-16c7 14 11 31 9 38-3 10-17 14-25 7-4-3-6-7-7-14-2-13-11-26-24-33-16-8-37-7-52 3-11 7-17 18-19 31-1 10-4 14-9 17-5 2-10 2-15 0zm361 0c-5-3-8-7-9-17-2-18-14-32-32-37-8-2-20-3-28-1-18 4-33 20-35 37-1 7-3 11-7 14-8 7-22 3-25-7-2-4-1-13 3-23 15-47 70-68 115-46 23 12 41 39 41 63 0 6 0 8-2 11-4 7-14 10-21 6zM181 598l13-1-1-6c-6-14-6-29 1-43 3-7 3-7 2-15l-1-13-1-5-31 1c-29 0-31 0-35-2-5-2-5-3-7-9-2-7 0-12 4-16 5-4 7-4 54-6h16v-9c1-10 3-24 5-28l10-40c0-2 0-3-3-3-8-2-46-2-56-1-41 5-71 22-92 52-10 13-22 39-22 46 0 4 5 16 11 29 18 34 46 56 82 65 18 5 27 5 51 4zm672 0c39-6 67-22 88-52 10-13 22-39 22-46 0-4-5-16-11-29-18-35-46-57-83-65-17-4-28-5-51-5-23 1-27 1-27 4l4 16a371 371 0 0111 63l33 1c29 0 31 1 34 3 4 3 6 7 7 12 0 7-2 11-8 14-4 2-6 2-35 2h-30l-1 8-2 10c-2 4-2 10 0 14 7 13 7 31 0 45-2 4-2 4 0 5h49zM230 357a332 332 0 0141-61l-21-22-23-23-2-8c0-6 4-11 11-14 6-2 11-1 20 8l12 11 15 13 12 11 6-5a190 190 0 0137-25 350 350 0 0123-15c1-3-27-33-44-45a123 123 0 00-119-20c-13 4-26 10-28 13l-6 14a126 126 0 0029 147l11 9 22 18 4-6zm552 0c15-13 33-33 44-49 20-32 25-71 11-109l-6-17-4-9-8-3c-21-10-41-15-62-15-29 0-53 8-79 28-12 10-41 40-41 43l5 4a319 319 0 0156 36l6 5 8-7c9-9 13-11 20-9l6 3c2 2 5 9 5 13s-4 9-10 16l-7 7 5 6a343 343 0 0143 62l8-5zm-33-101c-4-2-7-6-8-12-1-13 12-21 23-14 5 3 7 7 7 12 0 11-10 17-22 14zm-152-50c2-6 2-45 1-55-5-41-22-71-52-92-13-10-39-22-46-22s-33 12-46 22c-30 21-47 51-52 92-1 8 0 40 2 52 0 5 1 5 2 5l18-5c16-4 36-7 51-9l8-1v-15l1-31c0-17 1-20 6-24 4-3 14-3 18 0 6 4 6 5 6 40v31l12 2c20 2 38 5 52 9 18 5 19 5 19 1z" fill="#ebd585"/><path d="M488 991a161 161 0 01-116-163l-1-17-12 11c-50 49-103 65-164 48-14-4-40-15-45-20-4-3-16-29-20-45-8-29-9-57-2-82 7-29 24-56 49-81l11-13-16-1c-32 0-56-5-80-17-40-19-68-54-84-102l-2-9 2-9c16-48 44-83 84-102 24-12 47-17 79-17l15-1-10-11c-27-27-43-56-50-88-3-14-3-43-1-57 5-23 18-57 25-64 4-3 26-13 39-17 55-18 105-8 152 29a279 279 0 0130 28l1-18c0-33 5-57 17-82 19-39 54-67 102-83l9-2 9 2c48 16 83 44 102 84 12 24 17 48 17 80l1 16 10-9c33-32 66-49 105-53 28-3 60 4 91 19l13 6 6 12c7 14 15 37 18 51 2 13 2 45 0 57-7 32-23 60-50 89l-11 11 17 1c32 0 56 5 81 17 39 19 67 54 83 102l2 9-2 9c-16 48-44 83-83 102-25 12-49 17-82 17l-18 1 11 12c28 29 45 57 52 90 2 12 2 44 0 57-3 14-10 35-17 50l-7 13-11 5c-20 10-37 15-55 19-12 2-36 2-47 0-35-6-66-23-95-51l-11-10-1 15a161 161 0 01-129 165l-11-3zm23-31c45-18 73-48 83-91 4-17 5-28 5-51-1-24-2-28-4-28l-27 8a240 240 0 01-52 8l-1 32-2 34c-3 4-7 7-14 8-4 0-5 0-8-2-6-5-7-8-7-25l-1-32v-16h-8a341 341 0 01-69-14c-1 0-2 0-2 5-2 16-3 44-2 53 5 41 22 71 52 92 13 10 39 22 46 22l11-3zM251 847c11-1 22-4 31-7a149 149 0 0064-48l15-19-5-3a335 335 0 01-61-43l-23 23-24 23-8 2c-4 0-5-1-9-4l-5-8c-1-8 0-10 11-21l34-39-3-4c-4-4-17-22-18-26s-1-9 1-13c2-2 10-6 14-6 5 0 9 3 17 13a276 276 0 00465-46l-23-1c-24 0-28-1-38-6-6-3-14-10-18-16-18-28-5-65 27-75 5-2 9-2 23-2 18 0 21 1 23 7 2 3 2 4 1 7-3 5-5 5-24 6-16 0-18 1-22 3-10 5-16 15-16 27 0 8 2 15 8 21 9 8 10 8 47 8 26 0 31 0 36-2 6-2 14-10 16-16 2-7 2-16 0-23-2-6-10-14-17-16-8-3-12-9-8-15 2-4 6-6 10-6 2 0 3-1 4-3v-25a250 250 0 00-23-104 276 276 0 00-528 130l1 1h19c21 0 23 0 26 6 2 4 2 5 1 7-2 6-5 6-24 7-16 0-18 1-22 3-10 5-16 15-16 27 0 8 2 15 8 21 9 8 10 8 47 8 26 0 31 0 36-2 6-2 14-10 16-16 2-7 2-16 0-23-2-6-10-14-17-16-8-3-12-9-8-15 4-7 9-7 19-3 18 10 28 26 28 46 0 17-8 32-22 41-11 7-16 8-46 8h-26l-4 5-8 8a372 372 0 00-50 45c-34 44-40 87-18 138l5 12 10 5c17 8 38 14 58 15l13-1zm237-162c-34-3-67-17-89-39-21-20-31-42-33-70-1-7-1-8 1-12l6-6c3-2 5-3 126-3h122l4 2c7 4 8 7 9 16 0 9-1 17-5 28-12 40-50 71-97 81a260 260 0 01-44 3zM316 473c-4-1-8-4-10-8-2-5-1-17 2-27a80 80 0 01154 12c1 8 1 8-1 13-4 8-13 11-20 6-5-2-7-7-9-15-4-23-24-39-48-39-23 0-43 15-48 35l-2 9c0 9-10 16-18 14zm360 0c-3-1-9-7-9-10l-2-9c-3-22-24-39-48-39-25 0-45 16-49 39-2 8-4 13-9 15-7 5-16 2-20-6-2-5-2-5-1-13 5-26 20-45 44-56 22-11 49-11 71 0 24 13 40 35 42 60 0 8 0 9-2 12-5 6-10 9-17 7zm103 372c12-1 27-6 38-12l10-4 3-8a126 126 0 00-16-143c-11-15-39-40-41-39l-4 4a341 341 0 01-35 55l-6 7 10 12 14 15 10 11c7 8 9 11 9 16s-5 14-9 15c-4 2-9 1-13-1l-23-23-22-21-5 4a322 322 0 01-62 41l16 20 12 13 14 12c33 25 63 33 100 26zM181 598l13-1-1-6c-6-14-6-29 1-43 3-7 3-7 2-15l-1-13v-5l-32 1c-29 0-31 0-35-2-5-2-5-3-7-9-2-7 0-12 4-16 5-4 7-4 54-6h16v-9c1-10 3-24 5-28l10-40c0-2 0-3-3-3-8-2-46-2-56-1-41 5-71 22-92 52-10 13-22 39-22 46 0 4 5 16 11 29 18 34 46 56 82 65 18 5 27 5 51 4zm672 0c39-6 67-22 88-52 10-13 22-39 22-46 0-4-5-16-11-29-18-35-46-57-83-65-17-4-28-5-51-5-23 1-27 1-27 4l4 16a371 371 0 0111 63l33 1c29 0 31 1 34 3 4 3 6 7 7 12 0 7-2 11-8 14-4 2-6 2-35 2h-30l-1 8-2 10c-2 4-2 10 0 14 7 13 7 31 0 45-2 4-2 4 0 5h49zM230 357a332 332 0 0141-61l-21-22-23-23-2-8c0-6 4-11 11-14 6-2 11-1 20 8l12 11 15 13 12 11 6-5a190 190 0 0137-25 350 350 0 0123-15c1-3-27-33-44-45a123 123 0 00-119-20c-13 4-26 10-28 13l-6 14a126 126 0 0029 147l11 9 22 18 4-6zm552 0c15-13 33-33 44-49 20-32 25-71 11-109l-6-17-4-9-8-3c-21-10-41-15-62-15-29 0-53 8-79 28-12 10-41 40-41 43l5 4a319 319 0 0156 36l6 5 8-7c9-9 13-11 20-9l6 3c2 2 5 9 5 13s-4 9-10 16l-7 7 5 6a343 343 0 0143 62l8-5zm-33-101c-4-2-7-6-8-12-1-13 12-21 23-14 5 3 7 7 7 12 0 11-10 17-22 14zm-152-50c2-6 2-45 1-55-5-41-22-71-52-92-13-10-39-22-46-22s-33 12-46 22c-30 21-47 51-52 92-1 8 0 40 2 52 0 5 1 5 2 5l18-5c16-4 36-7 51-9l8-1v-15l1-31c0-17 1-20 6-24 4-3 14-3 18 0 6 4 6 5 6 40v31l12 2c20 2 38 5 52 9 18 5 19 5 19 1z" fill="#c7b7ae"/><path d="M486 989c-70-25-107-73-113-145a284 284 0 01-2-34l-12 11-19 17c-40 33-84 44-132 34-17-3-54-18-58-23-6-7-20-43-24-61-2-13-2-45 0-57 7-33 24-62 52-90l11-12-11-1-22-1c-64-5-109-35-136-90-6-15-13-33-13-37s7-22 13-36c30-62 82-92 158-92l9-1c0-1-4-6-10-11-27-27-44-57-51-89l-1-28c0-21 0-29 5-44 5-16 16-42 20-46 5-7 41-20 64-25 13-2 41-2 55 1 33 7 61 23 89 51l14 12v-11l1-24c5-65 34-109 91-137 14-6 32-13 36-13s22 7 37 13c55 27 85 72 90 136l1 22 1 11 11-10c28-27 59-45 91-51 13-2 40-2 53 0 19 4 37 10 55 19l9 5 4 9c16 32 23 64 21 93-3 39-20 73-53 106l-10 11 12 1 22 1c64 5 109 35 136 91 6 14 13 32 13 36s-7 22-13 37c-28 56-72 85-137 90l-24 1h-11l12 14c22 22 36 44 45 68 15 40 10 88-13 132l-4 8-9 5c-18 9-37 15-56 19-13 2-39 2-52 0-32-6-64-24-92-52l-10-9-1 9c0 66-23 114-69 145-17 11-51 26-59 26l-14-4zm22-27c9-3 26-12 36-19 37-24 56-64 56-117 0-14-2-35-3-36s-2-1-26 6c-12 3-32 7-47 8l-9 1-1 32c0 29-1 33-2 35-3 5-8 7-13 7-4 0-6-1-8-3l-5-7-1-25-1-31v-9h-7a357 357 0 01-72-14c-2-1-3 4-4 27-1 22-1 30 3 46 6 35 24 62 52 80 14 10 37 21 44 21l8-2zM270 845c26-8 48-22 70-45l23-27-3-3a340 340 0 01-66-45l-22 23c-23 24-27 27-34 26-4-1-8-4-10-8s-1-11 1-14a814 814 0 0144-49l-5-6c-13-15-19-25-18-31 2-7 10-13 17-12 5 1 8 4 14 13l15 18a278 278 0 00247 87c81-13 150-59 192-128 10-15 13-23 12-24l-24-1c-20 1-22 1-28-1l-13-6a50 50 0 015-86c9-4 14-5 31-5s20 1 23 5c2 4 1 7-2 11l-4 3h-16c-20 0-23 1-31 9-7 6-9 12-9 22 0 9 2 15 9 21 9 9 10 9 46 9 37 0 38 0 47-9 7-6 9-12 9-21l-2-12c-2-6-11-15-17-17-5-1-10-7-10-10 0-6 5-10 12-10l3-1-1-24c0-20 0-27-2-39a277 277 0 00-314-231 276 276 0 00-233 270l-1 24h19c21 0 24 0 27 5 2 4 1 7-2 11l-4 3h-16c-20 0-23 1-31 9-7 6-9 12-9 22 0 9 2 15 9 21 9 9 10 9 47 9 36 0 37 0 46-9 7-6 9-12 9-21l-2-12c-2-6-11-15-17-17-5-1-10-7-10-10 0-5 5-10 10-10s17 7 23 13c24 24 19 62-11 79-9 6-14 6-38 5-26 0-30 0-33 4l-8 8c-26 19-47 39-57 54-8 10-17 28-20 38a130 130 0 009 98l5 9 7 3a128 128 0 0066 14c14 0 18 0 26-2zm208-161c-42-7-79-30-98-62-8-14-14-32-14-48 0-6 0-8 2-11 4-8-7-7 132-7 122 0 124 0 127 2 7 4 9 16 5 33-10 45-47 79-100 91-10 2-44 4-54 2zM312 471c-6-4-7-8-7-17 3-29 25-55 56-65 6-2 10-2 23-2 12 0 16 0 22 2 16 5 31 15 40 27s16 29 16 41c0 8-6 14-14 14s-14-6-16-18c-4-22-24-38-48-38-14 0-26 4-35 13-9 8-13 17-15 29l-2 10c-5 6-14 8-20 4zm361 0c-4-3-6-6-7-14-2-12-6-21-15-29-9-9-21-13-35-13-24 0-44 16-48 38-2 12-8 18-16 18s-14-6-14-14c0-12 7-29 16-41s24-22 40-27c6-2 10-2 23-2 12 0 16 0 22 2 31 10 53 36 56 65 0 6 0 8-2 11-4 7-13 10-20 6zm105 375c18-3 46-13 50-18 2-2 10-25 13-33 11-40 4-77-23-113-15-20-47-49-47-43a398 398 0 01-45 66l13 15c24 25 29 31 31 35 2 6 0 11-4 15-3 3-5 3-9 3-3 0-6 0-8-2a423 423 0 01-44-44l-5 3a362 362 0 01-65 44l22 26c25 27 53 42 84 47 7 1 29 1 37-1zM195 598l2-1c-9-20-10-32-2-48l3-8-1-13-2-14h-32c-30 0-32 0-35-2-7-3-9-13-5-19s6-7 40-8l32-2 1-8c2-16 5-32 11-56l3-16c-1-1-22-3-36-3-53 0-93 19-118 56-6 10-16 29-19 38v12c3 9 13 28 19 38 26 38 66 57 119 55l20-1zm652 1c53-6 87-30 108-76l8-17v-12c-3-9-13-28-19-38-25-37-65-56-118-56-14 0-34 2-35 3l3 18a319 319 0 0111 62c1 2 8 2 32 3 34 0 36 1 40 7 3 4 3 12 0 15-5 6-6 6-40 6h-31l-1 8-2 13c-2 5-1 10 3 18 2 7 2 9 2 17 0 9 0 12-2 17-5 12-5 12 0 12h41zM230 359a362 362 0 0143-64 585 585 0 00-45-45c-6-10 3-23 16-21 3 1 10 6 36 32l15 13 6-5a287 287 0 0161-42c0-3-26-31-40-42-20-16-40-26-61-30-11-2-32-1-44 1s-29 8-39 13c-7 3-8 4-12 12-9 19-14 40-14 62 0 21 3 34 13 54 7 15 17 28 29 40 11 11 31 28 32 28l4-6zm552-2c12-9 28-26 36-37 30-40 36-83 17-130-7-17-7-17-17-22-11-5-24-9-35-12l-27-1c-17 0-19 0-28 2-25 7-46 20-67 41-10 10-25 26-25 28l5 4a381 381 0 0163 42l9-7c9-9 13-11 19-9 7 2 11 9 10 18-1 3-3 5-9 11l-8 8 6 8a314 314 0 0140 60c2 3 4 2 11-4zm-33-103c-6-3-9-11-5-18 4-8 12-10 20-6 8 5 9 16 2 22-4 4-12 5-17 2zm-327-49c15-4 33-7 51-9l11-2v-8a605 605 0 002-55c2-6 6-9 12-10 5 0 6 0 9 2 7 5 7 6 6 40v31l2 1 8 1a353 353 0 0174 13c1-1 3-21 3-35 0-53-19-93-56-118-10-6-29-16-38-19h-12l-17 8c-46 21-70 55-76 108a401 401 0 003 56l2 1 16-5z" fill="#f59b8c"/><path d="M486 989c-70-25-107-73-113-145a284 284 0 01-2-34l-12 11-19 17c-40 33-84 44-132 34-17-3-54-18-58-23-6-7-20-43-24-61-2-13-2-45 0-57 7-33 24-62 52-90l11-12-11-1-22-1c-64-5-109-35-136-90-6-15-13-33-13-37s7-22 13-36c30-62 82-92 158-92l9-1c0-1-4-6-10-11-27-27-44-57-51-89l-1-28c0-21 0-29 5-44 5-16 16-42 20-46 5-7 41-20 64-25 13-2 41-2 55 1 33 7 61 23 89 51l14 12v-11l1-24c5-65 34-109 91-137 14-6 32-13 36-13s22 7 37 13c55 27 85 72 90 136l1 22 1 11 11-10c28-27 59-45 91-51 13-2 40-2 53 0 19 4 37 10 55 19l9 5 4 9c16 32 23 64 21 93-3 39-20 73-53 106l-10 11 12 1 22 1c64 5 109 35 136 91 6 14 13 32 13 36s-7 22-13 37c-28 56-72 85-137 90l-24 1h-11l12 14c22 22 36 44 45 68 15 40 10 88-13 132l-4 8-9 5c-18 9-37 15-56 19-13 2-39 2-52 0-32-6-64-24-92-52l-10-9-1 9c0 66-23 114-69 145-17 11-51 26-59 26l-14-4zm22-27c9-3 26-12 36-19 37-24 56-64 56-117 0-14-2-35-3-36s-2-1-26 6c-12 3-32 7-47 8l-9 1-1 32c0 29-1 33-2 35-3 5-8 7-13 7-4 0-6-1-8-3l-5-7-1-25-1-31v-9h-7a357 357 0 01-72-14c-2-1-3 4-4 27-1 22-1 30 3 46 6 35 24 62 52 80 14 10 37 21 44 21l8-2zM270 845c26-8 48-22 70-45l23-27-3-3a340 340 0 01-66-45l-22 23c-23 24-27 27-34 26-4-1-8-4-10-8s-1-11 1-14a814 814 0 0144-49l-5-6c-13-15-19-25-18-31 2-7 10-13 17-12 5 1 8 4 14 13l15 18a278 278 0 00247 87c81-13 150-59 192-128 10-15 13-23 12-24l-24-1c-20 1-22 1-28-1l-13-6a50 50 0 015-86c9-4 14-5 31-5s20 1 23 5c2 4 1 7-2 11l-4 3h-16c-20 0-23 1-31 9-7 6-9 12-9 22 0 9 2 15 9 21 9 9 10 9 46 9 37 0 38 0 47-9 7-6 9-12 9-21l-2-12c-2-6-11-15-17-17-5-1-10-7-10-10 0-6 5-10 12-10l3-1-1-24c0-20 0-27-2-39a277 277 0 00-314-231 276 276 0 00-233 270l-1 24h19c21 0 24 0 27 5 2 4 1 7-2 11l-4 3h-16c-20 0-23 1-31 9-7 6-9 12-9 22 0 9 2 15 9 21 9 9 10 9 47 9 36 0 37 0 46-9 7-6 9-12 9-21l-2-12c-2-6-11-15-17-17-5-1-10-7-10-10 0-5 5-10 10-10s17 7 23 13c24 24 19 62-11 79-9 6-14 6-38 5-26 0-30 0-33 4l-8 8c-26 19-47 39-57 54-8 10-17 28-20 38a130 130 0 009 98l5 9 7 3a128 128 0 0066 14c14 0 18 0 26-2zm208-161c-42-7-79-30-98-62-8-14-14-32-14-48 0-6 0-8 2-11 4-8-7-7 132-7 122 0 124 0 127 2 7 4 9 16 5 33-10 45-47 79-100 91-10 2-44 4-54 2zm49-31c25-5 45-17 60-34 5-7 15-24 16-30v-4H500l-103 1c0 3 3 12 7 19 14 26 43 44 79 50 9 1 34 0 44-2zM312 471c-6-4-7-8-7-17 3-29 25-55 56-65 6-2 10-2 23-2 12 0 16 0 22 2 16 5 31 15 40 27s16 29 16 41c0 8-6 14-14 14s-14-6-16-18c-4-22-24-38-48-38-14 0-26 4-35 13-9 8-13 17-15 29l-2 10c-5 6-14 8-20 4zm361 0c-4-3-6-6-7-14-2-12-6-21-15-29-9-9-21-13-35-13-24 0-44 16-48 38-2 12-8 18-16 18s-14-6-14-14c0-12 7-29 16-41s24-22 40-27c6-2 10-2 23-2 12 0 16 0 22 2 31 10 53 36 56 65 0 6 0 8-2 11-4 7-13 10-20 6zm105 375c18-3 46-13 50-18 2-2 10-25 13-33 11-40 4-77-23-113-15-20-47-49-47-43a398 398 0 01-45 66l13 15c24 25 29 31 31 35 2 6 0 11-4 15-3 3-5 3-9 3-3 0-6 0-8-2a423 423 0 01-44-44l-5 3a362 362 0 01-65 44l22 26c25 27 53 42 84 47 7 1 29 1 37-1zM195 598l2-1c-9-20-10-32-2-48l3-8-1-13-2-14h-32c-30 0-32 0-35-2-7-3-9-13-5-19s6-7 40-8l32-2 1-8c2-16 5-32 11-56l3-16c-1-1-22-3-36-3-53 0-93 19-118 56-6 10-16 29-19 38v12c3 9 13 28 19 38 26 38 66 57 119 55l20-1zm652 1c53-6 87-30 108-76l8-17v-12c-3-9-13-28-19-38-25-37-65-56-118-56-14 0-34 2-35 3l3 18a319 319 0 0111 62c1 2 8 2 32 3 34 0 36 1 40 7 3 4 3 12 0 15-5 6-6 6-40 6h-31l-1 8-2 13c-2 5-1 10 3 18 2 7 2 9 2 17 0 9 0 12-2 17-5 12-5 12 0 12h41zM230 359a362 362 0 0143-64 585 585 0 00-45-45c-6-10 3-23 16-21 3 1 10 6 36 32l15 13 6-5a287 287 0 0161-42c0-3-26-31-40-42-20-16-40-26-61-30-11-2-32-1-44 1s-29 8-39 13c-7 3-8 4-12 12-9 19-14 40-14 62 0 21 3 34 13 54 7 15 17 28 29 40 11 11 31 28 32 28l4-6zm552-2c12-9 28-26 36-37 30-40 36-83 17-130-7-17-7-17-17-22-11-5-24-9-35-12l-27-1c-17 0-19 0-28 2-25 7-46 20-67 41-10 10-25 26-25 28l5 4a381 381 0 0163 42l9-7c9-9 13-11 19-9 7 2 11 9 10 18-1 3-3 5-9 11l-8 8 6 8a314 314 0 0140 60c2 3 4 2 11-4zm-33-103c-6-3-9-11-5-18 4-8 12-10 20-6 8 5 9 16 2 22-4 4-12 5-17 2zm-327-49c15-4 33-7 51-9l11-2v-8a605 605 0 002-55c2-6 6-9 12-10 5 0 6 0 9 2 7 5 7 6 6 40v31l2 1 8 1a353 353 0 0174 13c1-1 3-21 3-35 0-53-19-93-56-118-10-6-29-16-38-19h-12l-17 8c-46 21-70 55-76 108a401 401 0 003 56l2 1 16-5z" fill="#a89491"/><path d="M489 989c-35-12-60-28-78-49-25-30-38-68-38-116l-1-15-13 11c-27 27-53 43-83 50-37 10-75 4-116-16l-9-4-5-9c-10-19-17-42-20-62-2-11-1-40 1-50l12-33c10-21 20-35 40-54l12-14-16-1c-47 0-85-13-115-38a176 176 0 01-52-89c0-5 7-24 15-39 29-58 80-88 151-88l15-1-11-13c-24-24-38-45-46-72-6-17-7-28-7-49 1-20 3-30 9-49 3-10 13-33 16-35a178 178 0 01107-26c38 5 70 22 102 55l13 11 1-17A159 159 0 01500 8c5 0 24 7 40 15 57 29 87 80 87 152l1 16 13-11c17-17 30-27 48-36 38-20 78-22 121-8 12 4 33 14 36 17a171 171 0 0119 135c-8 26-23 49-46 72l-10 12 15 1c48 0 86 13 116 38a176 176 0 0152 89l-3 13a159 159 0 01-166 114l-17 1 11 13c31 30 48 60 54 96 2 10 2 35 0 45-3 19-10 40-19 57-4 10-5 11-14 15-40 20-81 26-117 16-30-7-54-22-80-48l-13-11-1 15c0 30-6 58-17 82-18 38-50 64-97 81-11 4-15 4-24 0zm22-28c66-26 95-75 89-153l-2-19c0-2-2-1-19 4-15 4-36 8-53 9l-12 2-1 33c-1 35-1 36-6 39-7 4-15 2-19-4-1-3-2-6-2-35l-1-33-9-2c-15-1-39-5-53-9-20-5-20-5-21-1-2 8-3 40-2 52a128 128 0 00100 121l11-4zM259 848c27-4 55-20 78-44 12-11 27-29 27-31l-4-4a358 358 0 01-65-45c-1 0-12 10-24 23l-24 24c-4 1-10 1-13-1-4-2-6-6-6-11 0-6 1-7 26-33l20-23-3-4-18-24c-4-10 3-20 12-20 5 0 9 3 15 11a276 276 0 00468-46l-25-1c-29-1-32-1-43-9a49 49 0 010-79c11-7 15-8 36-9h19l3 3c3 3 3 4 3 6-2 7-3 7-23 8-21 1-23 1-31 9-7 7-8 11-8 23 0 8 0 10 2 14 3 5 9 11 14 14 4 2 5 2 39 2 35 0 36 0 40-2 5-3 11-9 14-14 2-4 3-6 3-14 0-9-1-11-3-15-3-6-9-12-16-15s-9-4-10-9c0-2 0-3 3-6 2-2 4-3 7-3s4 0 5-3a294 294 0 00-23-130 278 278 0 00-418-112 278 278 0 00-111 243l20 1h20l3 3c3 3 3 4 3 6-2 7-3 7-23 8-21 1-23 1-31 9-7 7-9 11-9 23 0 8 1 10 3 14 3 5 9 11 14 14 4 2 5 2 39 2 35 0 36 0 40-2 5-3 11-9 14-14 2-4 3-6 3-14 0-9-1-11-3-15-3-6-9-12-16-15s-9-4-10-9c0-2 0-3 3-6 4-4 7-4 16 1 17 8 27 24 27 44 0 15-7 29-19 38-11 9-13 9-46 10h-29l-2 3-13 11c-12 9-30 25-39 34a130 130 0 00-25 154l4 9 8 4c11 5 30 11 41 13 10 2 32 2 41 1zm229-164c-52-4-98-35-114-76-4-11-6-18-7-29-1-9-1-11 1-14l5-7c3-1 6-2 126-2h122l4 2c6 3 8 7 8 17 0 20-9 43-24 61-28 34-74 52-121 48zm40-30c35-8 61-29 73-57l2-9 1-3H397v3l2 9c13 31 46 54 86 59 11 1 31 0 43-2zM317 472c-4-1-8-4-10-7l-1-11c2-19 13-38 29-51 24-18 56-21 83-8 23 10 38 30 43 55 1 8 1 8-1 12-5 10-18 11-24 2l-3-10c-2-11-5-17-13-25a50 50 0 00-36-15c-23 0-44 15-49 35l-2 10c0 8-9 15-16 13zm360 0c-3 0-9-6-9-9l-2-9c-1-10-5-17-13-25a50 50 0 00-36-15c-15 0-27 5-37 15-8 8-11 14-13 25l-3 10c-6 9-19 8-24-2-2-4-2-4-1-12 5-25 20-45 43-55 22-11 47-11 69 0 24 11 41 34 43 59l-1 11c-3 5-10 8-16 7zm101 375c14-2 32-8 44-14 5-3 6-3 9-10 31-65 16-122-44-175l-14-11-4 4a412 412 0 01-44 64c0 1 9 12 21 23l22 26c3 5 2 10-3 15-2 3-3 3-8 3l-7-1-23-23-22-22-6 4a355 355 0 01-65 44c0 2 14 18 25 30 23 23 50 39 77 43 10 2 31 2 42 0zM196 599c2 0 3-3 0-5-2-4-5-15-5-23 0-9 2-17 6-24l2-5-1-14-1-14-34-1h-34l-3-4c-6-6-5-17 3-20 2-2 9-2 31-3l33-1 4-1v-7c2-19 5-36 11-56 4-18 4-19 3-19l-19-2c-35-3-65 2-89 14-30 14-54 43-66 79l-2 7 2 7c7 21 20 42 34 57 22 21 49 33 84 36 8 1 36 0 41-1zm648 1c36-3 63-15 85-36 14-15 27-36 34-57l2-7-2-7c-12-36-36-65-66-79-23-12-54-17-88-14l-19 2c-2 0-1 1 4 21a321 321 0 0111 62l32 1c34 1 35 1 39 7l2 8c0 3-1 5-3 8l-4 4h-33l-33 1-1 7-2 15c-1 8-1 8 1 14 4 8 5 14 5 20 0 7-2 17-5 22-3 6-3 7 5 8h36zM230 361a360 360 0 0144-66l-22-22-23-24c-2-4-2-8 0-12 3-6 11-9 18-5l25 22 23 21 7-5c12-11 30-24 52-36l9-7c0-3-18-23-32-36-20-18-40-29-62-35a144 144 0 00-91 12l-9 4-4 9c-16 35-19 70-8 101 8 22 21 41 40 60 13 12 27 24 29 24 1 0 3-2 4-5zm552-3c12-9 29-26 37-38 28-37 35-76 21-119-4-14-11-27-13-29-8-6-33-15-49-18-15-2-38-1-50 2-26 7-47 21-70 43-10 10-23 25-23 27l3 3a534 534 0 0167 44c1 0 5-3 9-8 7-7 8-7 13-8 9-1 14 5 14 14 0 5-2 8-9 14-9 8-9 8-2 16a337 337 0 0144 63l8-6zm-30-103c-10-4-12-17-2-24 6-4 14-2 18 5 6 10-5 23-16 19zm-329-49a387 387 0 0162-11l1-32c0-29 1-32 2-35 6-8 19-8 24 1l1 34v32l11 2c18 2 37 5 53 9 20 5 21 6 21 4l2-19c3-34-2-65-14-88-14-30-43-54-79-66l-7-2-7 2c-21 7-42 20-56 34-30 31-42 72-36 129 1 10 1 11 4 11l17-5z" fill="#9f8a7d"/><path d="M489 989c-35-12-60-28-78-49-25-30-38-68-38-116l-1-15-13 11c-27 27-53 43-83 50-37 10-75 4-116-16l-9-4-5-9c-10-19-17-42-20-62-2-11-1-40 1-50l12-33c10-21 20-35 40-54l12-14-16-1c-47 0-85-13-115-38a176 176 0 01-52-89c0-5 7-24 15-39 29-58 80-88 151-88l15-1-11-13c-24-24-38-45-46-72-6-17-7-28-7-49 1-20 3-30 9-49 3-10 13-33 16-35a178 178 0 01107-26c38 5 70 22 102 55l13 11 1-17A159 159 0 01500 8c5 0 24 7 40 15 57 29 87 80 87 152l1 16 13-11c17-17 30-27 48-36 38-20 78-22 121-8 12 4 33 14 36 17a171 171 0 0119 135c-8 26-23 49-46 72l-10 12 15 1c48 0 86 13 116 38a176 176 0 0152 89l-3 13a159 159 0 01-166 114l-17 1 11 13c31 30 48 60 54 96 2 10 2 35 0 45-3 19-10 40-19 57-4 10-5 11-14 15-40 20-81 26-117 16-30-7-54-22-80-48l-13-11-1 15c0 30-6 58-17 82-18 38-50 64-97 81-11 4-15 4-24 0zm22-28c66-26 95-75 89-153l-2-19c0-1-2-1-10 1a273 273 0 01-66 13l-9 1v33l-1 34c-3 4-8 7-13 7-4 0-5-1-8-4l-4-6-1-4a629 629 0 01-1-58c-1-2-2-3-8-3-16-2-40-6-54-10l-20-4c-3 3-4 40-3 55a128 128 0 00100 121l11-4zM259 848c34-6 66-27 97-64 9-11 9-12 7-13l-17-10c-15-9-34-23-44-32-5-5-9-6-10-4l-45 46c-4 1-10 1-13-1-4-2-6-6-6-11 0-6 1-7 26-33l20-23-5-7a70 70 0 01-17-26c0-6 1-10 6-12 8-4 14-2 21 9a279 279 0 00264 107 280 280 0 00178-106c14-18 30-45 29-49l-25-1c-25 0-28 0-38-5-17-9-28-30-25-50 3-18 17-33 34-39l22-1c17 0 18 0 20 2 3 3 3 8 0 11-2 2-3 3-20 3-21 1-23 1-31 9-7 7-8 11-8 22 0 9 0 11 2 15 3 5 9 11 14 14 4 2 5 2 40 2 34 0 35 0 39-2 5-3 11-9 14-14 2-4 3-6 3-14 0-9-1-11-3-15-3-6-9-12-16-15-8-3-9-5-9-9 0-5 3-8 9-8 4 0 4-1 5-4a295 295 0 00-30-146 275 275 0 00-443-70 274 274 0 00-80 216c1 3 1 3 4 3a573 573 0 0140 2c3 3 3 8 0 11-2 2-3 3-20 3-21 1-23 1-31 9-7 7-8 11-8 23 0 8 0 10 2 14 3 5 9 11 14 14 4 2 5 2 40 2 34 0 35 0 39-2 5-3 11-9 14-14 2-4 3-6 3-14 0-9-1-11-3-15-3-6-9-12-16-15l-8-4c-4-5 0-13 7-13s23 11 29 21c6 8 9 23 7 33-1 9-7 20-13 26s-11 9-20 12c-5 2-7 2-33 2h-27l-3 4-12 11c-39 29-61 57-72 87-11 31-8 66 8 101l4 9 8 4c11 5 30 11 41 13 10 2 32 2 41 1zm226-165c-64-6-116-54-117-108-1-10 1-13 7-16 3-2 11-2 125-2l123 1c7 3 10 10 9 23-7 62-73 109-147 102zm41-28c19-4 38-13 52-25 11-10 22-26 26-39v-7a2829 2829 0 00-208 0c-4 2 6 23 16 35 16 20 43 34 73 38 11 1 29 0 41-2zM314 471c-6-3-8-9-7-19 4-28 26-53 54-61 40-12 83 10 96 47 3 11 4 19 3 23-3 7-11 10-17 7-5-2-7-6-9-15-3-14-12-27-26-34-33-16-72 3-76 38 0 7-3 12-7 14h-11zm361 0c-4-2-7-7-7-14-4-35-43-54-76-38-14 7-23 20-26 34-2 9-4 13-9 15s-9 2-13-1c-4-4-5-8-4-15 5-34 33-60 68-64 23-3 45 5 62 21 13 12 21 27 23 43 1 10-1 16-8 19h-10zm103 376c14-2 32-8 44-14 5-3 6-3 9-10 31-65 16-122-44-175l-14-11-4 4a382 382 0 01-44 64c0 1 5 8 12 15 34 34 34 35 32 43-1 6-6 9-12 9-5 0-10-3-12-6-4-5-39-40-41-40l-7 5a349 349 0 01-63 43c0 2 17 22 31 36 20 19 46 33 71 37 10 2 31 2 42 0zM196 599c2 0 2-2 1-5-4-5-6-15-6-23 0-9 2-16 6-25 2-4 3-6 2-10l-2-13-1-10h-66l-4-3c-6-6-5-16 2-21 3-1 6-2 22-2l30-1c17 0 17 0 17-10 2-16 5-35 11-55 4-18 4-19 3-19l-19-2c-35-3-65 2-89 14-30 14-54 43-66 79l-2 7 2 7c7 21 20 42 34 57 22 21 48 32 84 36 8 1 38 0 41-1zm648 1c36-3 63-15 85-36 14-15 27-36 34-57l2-7-2-7c-12-36-36-65-66-79-23-12-54-17-88-14l-19 2c-2 0-1 1 4 21a321 321 0 0111 62l32 1c34 1 35 1 39 7l2 8c0 4-1 5-4 8l-4 4h-65l-1 9-2 15c-1 6-1 7 1 13 4 8 5 14 5 20 0 7-2 17-5 22-3 6-3 7 5 8h36zM230 362a333 333 0 0144-67l-22-22-23-25c-5-10 4-20 15-18 3 1 7 4 36 32l15 13 7-6a353 353 0 0161-42c0-3-18-23-32-36-20-18-40-29-62-35a144 144 0 00-91 12l-9 4-4 9c-16 35-19 70-8 101 6 15 13 29 25 44 11 13 40 40 44 40 1 0 3-1 4-4zm552-4c12-9 29-26 37-38 28-37 35-76 21-119-4-14-11-27-13-29-8-6-33-15-49-18-15-2-38-1-50 2-26 7-47 21-70 43-10 10-23 25-23 27l3 3a392 392 0 0168 44l8-7c6-7 10-9 14-9 8 0 13 6 13 13 0 6-2 9-9 15-9 8-9 8-2 16a337 337 0 0144 63l8-6zm-30-103c-10-4-12-17-2-24 6-4 14-2 18 5 6 10-5 23-16 19zm-329-49c17-4 33-7 50-9l12-3 1-28a639 639 0 011-34l3-6c6-6 16-5 21 2 2 3 2 4 2 35v32l11 2c18 2 37 5 53 9 20 5 21 6 21 4l2-19c3-34-2-65-14-88-14-30-43-54-79-66l-7-2-7 2c-36 12-65 36-79 66-10 20-16 51-15 76 2 32 3 33 6 32l18-5z" fill="#988584"/><path d="M486 988c-56-20-92-57-106-110-4-15-5-25-6-48 0-16-1-22-2-23l-13 12c-29 29-58 46-91 53-12 2-43 2-55 0-23-5-59-19-63-25s-12-26-16-37c-17-52-9-100 25-145l19-22c10-9 14-14 14-15-1-2-4-2-18-2-48 0-85-13-116-40-19-16-36-44-46-74l-4-12 4-12c25-75 81-114 161-114 14 0 16 0 17-2l-11-13c-13-13-20-22-28-34-26-39-32-82-19-126 3-12 10-29 15-38l3-7 13-7c13-7 33-13 47-16 12-3 38-4 49-2a165 165 0 0199 53l14 13c2-1 2-4 2-20 0-21 2-35 5-51 14-54 51-92 109-112l12-4 12 4c30 10 58 27 74 46 27 31 40 68 40 116 0 15 0 17 2 18 1 0 5-3 13-12 23-22 46-37 71-45 16-6 24-7 46-6 22 0 31 1 52 8 12 4 32 13 35 16a172 172 0 0124 119c-7 31-23 60-50 87l-11 13c0 2 0 2 18 2 48 0 85 13 116 40 19 16 36 44 46 74l4 12-4 12c-20 58-58 95-112 109-16 3-30 5-51 5-16 0-19 0-20 2l13 14c32 33 48 63 53 100 2 12 1 34-2 47-3 17-16 51-22 58-4 6-41 20-60 24-12 3-37 4-48 2-37-5-70-23-100-54l-11-9c-2 0-2 3-2 19 0 69-31 120-89 149l-37 14-14-4zm22-25c12-4 27-11 37-18 41-28 60-73 56-135-1-20-2-23-5-22l-20 4a306 306 0 01-62 11h-2v33c0 35 0 36-6 39-7 4-16 1-18-6l-1-34-2-32-9-1c-15-2-39-6-54-10-21-6-20-5-20-3-3 8-4 48-2 62a127 127 0 0073 105c9 4 24 10 27 10l8-3zM257 849c30-5 56-19 82-45 13-13 26-29 26-32l-2-2-16-10a325 325 0 01-53-37l-24 23-23 24-7 1c-8 0-14-9-11-16l24-27c12-12 22-24 22-25l-5-7c-10-11-15-19-17-24-1-4-1-4 1-8 1-3 3-5 5-6 8-4 13-2 21 9 11 17 35 41 54 55a282 282 0 00208 52 278 278 0 00208-155l-25-1c-26 0-30-1-39-6-6-4-14-10-17-17-16-26-4-60 26-70 5-2 8-2 23-2 17 0 17 0 20 2l2 6-2 5c-3 2-3 2-19 2-20 0-25 1-33 9a33 33 0 009 53l5 2h69l6-2c18-10 23-35 9-51-3-3-7-6-12-8l-8-6c-3-5 1-11 8-11 5 0 5 0 6-4a284 284 0 00-81-217 274 274 0 00-393 0 274 274 0 00-80 219l21 1h20l2 2c4 4 4 7 1 11-3 2-3 2-19 2-20 0-25 1-33 9a33 33 0 009 53l5 2h69l6-2c18-10 23-35 9-51-3-3-7-6-12-8-9-5-12-10-7-15 4-3 7-3 15 1 17 9 27 25 27 43 0 10-2 17-7 25-6 10-15 17-26 21-5 2-8 2-33 2h-27l-3 3c-1 2-6 7-11 10-47 35-72 70-79 108-1 11-1 30 1 42 2 11 7 30 13 41 4 8 4 9 9 11 13 7 33 13 47 16h36zm231-166c-41-3-77-22-99-52-12-15-19-32-21-51-1-11 0-16 4-19 2-2 5-3 7-3a6660 6660 0 01247 2c5 3 6 7 6 19-2 35-28 70-65 89a152 152 0 01-79 15zm32-27c39-6 71-29 83-60l2-10v-2H396l-1 2 2 10c10 25 33 46 63 56 17 6 41 8 60 4zM316 471c-9-3-11-11-7-27 6-25 26-45 52-53 10-3 30-4 41-1 23 6 41 20 51 39 5 11 8 26 7 31-2 7-9 11-15 9-4-1-9-6-9-9-2-11-4-15-6-20-14-28-55-36-81-15-9 7-17 23-17 33 0 9-8 15-16 13zm361 0c-4-1-8-6-8-10-3-16-6-24-15-33a54 54 0 00-75 0l-9 12c-2 5-4 9-6 20 0 3-5 8-9 9-6 2-13-2-15-9-1-5 2-20 7-31 10-19 28-33 51-39 11-3 31-2 41 1 15 5 26 12 36 23 13 14 21 40 17 50-3 6-9 8-15 7zm109 376l36-13c5-3 6-4 9-9 5-10 9-21 12-33 13-49-2-93-45-135-11-11-23-21-25-21l-4 3a374 374 0 01-45 67l22 24c23 25 24 26 22 33l-3 5c-3 3-10 4-14 2l-24-23-22-22a353 353 0 01-72 49 185 185 0 0070 63c8 5 23 9 34 11 12 3 35 2 49-1zm53-246c33-2 57-11 78-26 20-15 37-40 47-67l2-8-2-8c-5-11-12-27-19-37-28-41-73-60-136-56-19 1-21 2-21 5l5 18a382 382 0 0112 64l32 1c26 0 31 1 34 2 8 5 8 18 0 22l-35 1h-32v2l-3 28 3 11c2 6 2 7 2 17s0 12-2 18l-4 9c0 3 0 3 3 3a111 111 0 0020 2l16-1zm-643-1c4 0 4-2 1-7-7-13-7-33 1-46l2-4-1-13-2-16v-2h-33c-35 0-35 0-39-5-2-3-3-10 0-14 3-5 5-5 39-6l33-2 1-10a359 359 0 0114-71c1-3-2-4-22-5-62-4-107 15-135 56-7 10-14 26-19 37l-2 8 2 8c5 11 12 27 19 37 21 32 53 50 95 55h46zm35-239a353 353 0 0145-66l-23-22-24-26c-3-7 2-15 11-16 6 0 5 0 33 26l21 19 9-6a351 351 0 0161-42c0-3-9-14-22-27-24-25-47-39-75-46-12-3-39-4-52-1-11 3-28 8-38 13l-8 4-4 9a142 142 0 00-13 86c5 27 20 52 43 75 13 13 29 26 31 26 1 0 3-2 5-6zm552-2c16-13 34-34 44-49 9-14 16-33 19-48 2-10 2-31 0-42-3-16-14-45-19-49-2-3-22-11-31-13-18-5-20-5-40-5-17 0-19 0-28 2-25 7-48 21-70 43-11 11-24 26-24 29a354 354 0 0171 47c1 0 5-3 9-8 8-7 8-7 13-8 5 0 6 0 9 2l4 7c2 5 0 9-9 18s-9 8-1 17c11 13 30 40 38 55 4 10 5 10 15 2zm-32-105c-4-2-7-7-7-11 0-7 6-13 13-13 3 0 9 4 11 7 3 6 0 14-6 17h-11zm-329-47a384 384 0 0163-11l2-31 1-34c2-7 11-10 18-6 6 3 6 4 6 38v33l10 1a375 375 0 0174 15c3 0 4-2 5-21 4-63-15-108-56-136-10-7-26-14-37-19l-8-2-8 2c-35 13-62 35-77 63-11 21-15 39-16 69 0 18 1 41 3 43l20-4z" fill="#907c7c"/></svg>