<?xml version="1.0" encoding="UTF-8"?>
<svg height="1000" width="1000" xmlns="http://www.w3.org/2000/svg"><path d="M485 991l-25-11c-60-30-90-82-90-154v-12l-11 11c-30 28-57 44-90 51-13 2-46 2-60-1-16-3-34-10-48-17l-13-6-5-10c-15-29-21-55-21-82 0-18 2-31 7-46 8-26 23-49 46-73l11-11h-12A162 162 0 015 500a162 162 0 01168-130h10l-9-10c-23-24-37-46-45-71-5-16-7-28-7-46 0-28 6-54 21-83l5-10 9-4c18-10 38-17 58-20 11-2 15-2 30-2 19 1 26 2 43 8 25 8 47 22 71 45l11 11v-13c0-63 22-109 67-142 16-11 53-28 63-28s47 17 63 28c45 32 67 79 67 141v11l11-10c29-27 56-42 87-49 12-2 45-2 58 0 16 3 31 9 50 17 12 6 14 7 19 17 20 41 26 81 16 118-7 29-22 55-47 81l-10 11h12a162 162 0 01169 130c0 10-17 47-28 63-33 45-79 67-142 67h-13l11 11c30 32 47 63 52 99 4 30-3 66-19 99l-6 13-14 6c-15 8-36 15-51 18-13 2-45 2-57 0a174 174 0 01-87-49l-11-10v10a162 162 0 01-130 168l-15-4z" fill="#fdf4e0"/><path d="M486 991c-30-11-52-24-70-42-31-31-46-72-46-127v-9l-11 11c-28 28-59 45-92 52-13 2-42 2-56-1-15-3-33-9-46-15-16-8-17-9-23-20-10-22-16-38-19-58-2-13-1-40 1-52 8-32 25-63 52-90l10-10h-8C92 630 36 591 8 513l-3-13 3-13c23-63 64-101 125-113 10-2 32-4 44-4h7l-9-9c-28-28-46-61-52-95-2-14-1-41 2-55 5-22 18-56 24-61l15-8c38-17 77-22 111-14 31 8 58 24 85 50l10 10v-9c0-12 2-34 4-46C386 72 424 31 487 8l13-3c7 0 33 11 49 20 54 30 81 82 81 153v8l8-8c30-30 65-48 101-53 12-2 35-1 48 2 18 3 37 10 54 19l8 4 5 11c17 32 24 64 21 94-3 38-20 72-52 105l-10 10h9c86 0 142 39 170 117l3 13-3 13c-23 63-64 101-125 113a279 279 0 01-55 4l10 11c29 29 46 61 52 94 3 20 2 46-5 67-5 19-16 45-21 50-4 3-23 12-37 16-44 15-84 13-122-7-17-8-35-21-50-36l-9-9v7c0 70-27 122-81 152-16 9-43 20-49 20l-14-4zm25-33c31-12 56-32 69-57 11-20 16-39 17-67l-2-41c-1-1-3 0-12 2l-12 3 2 5c3 7 3 12 2 19-3 7-10 15-18 17-6 2-26 5-34 5-7 0-7 0-7 13l-1 15c-3 5-8 9-14 10-2 0-6 1-8 3-8 4-19 2-25-5-5-5-6-9-6-23 0-15 1-14-16-17-11-1-36-7-41-9-2 0-2 0-2 11 2 21 7 42 17 59 14 25 39 46 72 58 8 3 8 3 19-1zM250 845a132 132 0 0084-42 632 632 0 00-39-26l-12-8-10 9-12 11c-5 3-13 3-18 0-5-2-10-8-11-12 0-1-1-4-3-5-3-3-5-9-5-13 0-5 3-10 12-19l8-9-6-6a398 398 0 01-39-55l-2-4-4 4c-7 6-19 23-25 34a121 121 0 00-6 100c6 17 9 23 15 26a169 169 0 0061 16l12-1zm530-2c10-1 26-7 37-12 9-4 9-4 15-19 8-19 11-35 11-53 0-38-17-71-55-105l-12-11-3-2-9 15c-4 8-11 18-15 23l-6 8 5 3c9 5 15 13 15 23 0 6-1 10-5 16l-3 4 8 8 9 11c2 5 1 11-1 15l-6 12c-3 8-11 13-21 12-6-1-10-3-19-14l-8-8-12 8a415 415 0 01-40 27c0 2 16 15 26 21a120 120 0 0089 18zM168 596l-2-5c-3-11-7-33-9-50l-1-5h-11c-10 0-12-1-16-3l-8-8c-2-4-2-5-3-15 0-13 1-18 5-22 5-4 9-5 22-5h10v-6c0-8 2-20 5-25 6-11 21-16 33-11l5 3 5-19c4-14 5-20 4-20l-41-2c-28 1-47 6-67 17-25 14-47 40-58 73l-3 7 3 7c3 11 12 28 18 36 18 26 43 43 72 50 16 3 37 5 37 3zm696-2c34-8 58-24 77-51 6-8 15-25 18-36l3-7-3-7c-3-11-12-28-18-37-19-27-44-43-79-50-11-2-14-2-39-2l-29 1 3 16a409 409 0 0110 61 1985 1985 0 0066 4c4 2 8 7 9 12l2 8c3 8 2 16-3 22-7 7-8 7-43 7l-33 1c-1 4 0 10 3 16a53 53 0 01-2 41l-1 3 24 1c20-1 25-1 35-3zm-77-244c28-25 45-50 53-79 2-7 2-12 3-23 0-23-3-38-13-62-5-13-4-12-22-19-21-8-43-12-62-10-34 3-63 20-94 54l-11 12-2 3 2 1a349 349 0 0148 29l21-19c25-23 28-25 38-22 3 1 7 3 10 7l9 8c5 3 6 7 6 14-1 10-9 16-19 15-5-1-6-1-8 1s-2 3-1 7c1 7-3 13-11 21l-6 6 5 5c9 10 22 29 32 45 6 11 10 16 11 15l11-9zm-582-30a395 395 0 0125-38c0-1-3-5-8-8-8-8-11-13-11-20 0-8 5-15 14-20l6-4c4-3 9-4 14-3 3 1 7 3 13 9 9 9 9 9 14 3l18-14c6-2 15-1 21 1a28 28 0 0115 20l7-3 16-10 10-6-3-4c-8-10-19-22-21-22-5 0-5 0-5-2 1-2 0-4-3-7-16-14-40-28-59-32-23-6-52-4-77 6-19 8-18 7-23 17-9 19-13 36-14 55-1 27 7 52 24 76 8 11 16 20 17 20l10-14zm391-121a353 353 0 00-2-63c-8-34-24-58-51-77-8-6-25-15-36-18l-7-3-7 3c-11 3-28 12-36 18-33 22-51 56-54 98 0 10 0 10 2 10a401 401 0 0155-12h3v-9l1-15c4-11 15-17 26-14l10 2c6 0 12 3 14 9 2 3 2 6 2 34v31h8a369 369 0 0170 14c1 0 2-2 2-8z" fill="#f5ebd8"/><path d="M485 990c-75-27-114-83-114-164l-1-14-12 11c-30 30-62 48-99 53-10 2-36 1-47-1a225 225 0 01-63-25 201 201 0 01-26-90c0-45 17-82 54-119l11-12h-14c-81 0-137-39-164-114l-4-15 4-15c21-58 59-94 113-108a222 222 0 0162-7l-11-12c-43-43-59-92-48-146 3-17 17-54 23-60 2-2 17-10 29-15 9-4 23-7 34-10 11-2 36-3 47-1 36 5 69 22 100 53l11 11 1-15c0-82 39-138 114-165l15-4 15 4c75 27 114 83 114 164l1 13 10-9a180 180 0 0190-51c12-2 44-2 58 1 21 4 55 18 61 24 3 4 13 25 17 39 20 62 5 119-45 170l-9 10h14c81 0 137 39 164 114l4 15c0 9-14 42-26 59-32 47-79 70-143 70l-15 1 11 11c50 50 65 108 45 170-4 13-14 35-17 39-7 7-41 20-64 25-12 2-44 2-56 0-33-7-64-25-91-52l-8-8-1 12a161 161 0 01-129 167l-16-4zm28-32c53-21 81-60 85-118 1-15 0-45-2-48-1-1-2-2-3-1l-12 3-12 4 1 4c7 10 3 26-8 33-6 3-12 5-26 6l-16 2-4 1-1 13c0 11-1 14-2 16-3 4-8 7-13 8l-8 2c-8 4-20 2-25-6-2-4-2-5-3-19l-1-16-6-2c-15-2-42-7-53-11-2 0-2 0-2 12 3 44 22 79 55 101 16 11 40 22 45 20l11-4zM263 844c18-3 34-11 50-22 9-6 23-18 23-20l-13-8a393 393 0 01-40-27l-10 9-12 11c-5 3-13 3-18 0-4-3-9-8-9-11l-3-5-5-8c-2-7 0-11 10-22l9-10-4-6a446 446 0 01-43-60 133 133 0 00-43 76c-3 10-2 32 0 44l12 35c4 8 4 8 11 11 13 7 34 13 49 15 9 1 28 0 36-2zm517 1c14-3 37-11 44-16 3-2 8-12 12-25 18-52 6-98-37-141-11-12-24-23-26-23l-10 16a334 334 0 01-20 30l-2 3 5 2c16 7 20 24 9 40-2 2-2 2 6 11 12 12 13 16 9 24l-5 9c-5 10-10 14-19 14-6 0-11-3-20-13l-9-9-13 9a404 404 0 01-41 28c0 1 9 10 21 18 17 12 37 21 56 24 10 1 29 1 40-1zm74-249c39-5 68-23 88-53 7-10 15-26 19-37l2-6-2-6c-7-20-20-42-34-56-27-27-64-39-116-36l-18 1c-2 1-2 1 3 17 4 15 8 40 10 56 0 6 0 7 2 7l32 1c27 0 29 1 32 3 4 2 8 7 8 12l3 9c3 9-1 19-9 23-4 2-6 2-36 2l-33 1c-2 3-2 10 0 14 6 11 7 29 2 41l-3 7c-1 3 32 3 50 0zm-684 2l-3-14c-3-12-7-29-9-44l-1-5-12-1c-11-1-12-1-16-4-7-4-8-8-9-19 0-15 0-15 2-18 4-7 9-9 24-9l10-1 3-25c5-14 21-21 34-15 6 3 7 3 7 0l5-19 4-19c0-2-3-2-20-3-52-3-89 9-116 36-14 14-27 36-34 56l-2 6 2 6c4 11 12 27 19 37 19 30 48 47 87 53 8 2 25 3 25 2zm612-242l17-16c43-43 55-89 38-142-5-12-10-23-13-25-4-3-21-10-29-12-42-12-81-5-117 23-13 10-40 39-40 42l2 2a415 415 0 0151 30l22-21c19-18 23-21 30-21 4 0 10 3 14 7l8 7c4 2 7 7 7 12 0 10-10 18-20 15-3-1-4-1-7 2s-3 4-2 7c2 7 0 11-9 20l-7 8 5 6a350 350 0 0142 61l8-5zm-577-34a389 389 0 0127-39c1-1 0-3-8-10-10-10-12-13-11-21 1-6 4-11 10-15l6-4c3-3 7-5 12-5s8 2 13 7l8 7 5 4 9-8c11-10 16-12 24-12 11 0 20 7 23 18l2 5 9-6a671 671 0 0126-16c0-2-9-12-21-24-21-22-41-35-63-42-24-8-47-8-73 0-9 2-28 10-31 12-4 4-15 33-18 50-2 13-1 35 2 47 3 11 8 23 14 33 8 14 23 33 26 33l9-14zm393-132c3-53-9-89-36-117-14-14-36-27-56-34l-6-2-6 2c-28 10-56 29-69 50-13 19-21 43-23 67-1 13-1 13 7 11l43-9 13-1v-12c1-15 2-19 9-23 4-4 5-4 22-3 9 1 13 3 17 8 2 3 2 4 2 35v31l11 2a352 352 0 0170 12l2-17z" fill="#fdb9cd"/><path d="M485 990c-75-27-114-83-114-164l-1-14-12 11c-30 30-62 48-99 53-10 2-36 1-47-1a225 225 0 01-63-25 201 201 0 01-26-90c0-45 17-82 54-119l11-12h-14c-81 0-137-39-164-114l-4-15 4-15c21-58 59-94 113-108a222 222 0 0162-7l-11-12c-43-43-59-92-48-146 3-17 17-54 23-60 2-2 17-10 29-15 9-4 23-7 34-10 11-2 36-3 47-1 36 5 69 22 100 53l11 11 1-15c0-82 39-138 114-165l15-4 15 4c75 27 114 83 114 164l1 13 10-9a180 180 0 0190-51c12-2 44-2 58 1 21 4 55 18 61 24 3 4 13 25 17 39 20 62 5 119-45 170l-9 10h14c81 0 137 39 164 114l4 15c0 9-14 42-26 59-32 47-79 70-143 70l-15 1 11 11c50 50 65 108 45 170-4 13-14 35-17 39-7 7-41 20-64 25-12 2-44 2-56 0-33-7-64-25-91-52l-8-8-1 12a161 161 0 01-129 167l-16-4zm28-32c53-21 81-60 85-118 1-15 0-45-2-48-1-1-2-2-3-1l-12 3-12 4 1 4c7 10 3 26-8 33-6 3-12 5-26 6l-16 2-4 1-1 13c0 11-1 14-2 16-3 4-8 7-13 8l-8 2c-8 4-20 2-25-6-2-4-2-5-3-19l-1-16-6-2c-15-2-42-7-53-11-2 0-2 0-2 12 3 44 22 79 55 101 16 11 40 22 45 20l11-4zM263 844c18-3 34-11 50-22 9-6 23-18 23-20l-13-8a393 393 0 01-40-27l-10 9-12 11c-5 3-13 3-18 0-4-3-9-8-9-11l-3-5-5-8c-2-7 0-11 10-22l9-10-4-6a446 446 0 01-43-60 133 133 0 00-43 76c-3 10-2 32 0 44l12 35c4 8 4 8 11 11 13 7 34 13 49 15 9 1 28 0 36-2zm517 1c14-3 37-11 44-16 3-2 8-12 12-25 18-52 6-98-37-141-11-12-24-23-26-23l-10 16a334 334 0 01-20 30l-2 3 5 2c16 7 20 24 9 40-2 2-2 2 6 11 12 12 13 16 9 24l-5 9c-5 10-10 14-19 14-6 0-11-3-20-13l-9-9-13 9a404 404 0 01-41 28c0 1 9 10 21 18 17 12 37 21 56 24 10 1 29 1 40-1zM303 597c6-3 10-7 13-13 3-5 3-7 3-13s-1-9-3-14c-4-7-6-9-15-14-6-3-8-4-10-8l-1-4h-17l-1 3c-3 6-6 7-24 7-16 0-16 0-22 3-10 5-16 14-16 27 0 11 6 21 16 26l6 3 33-1c32 0 34 0 38-2zm470 0c6-3 10-7 13-13 3-5 3-7 3-13s-1-9-3-14c-4-7-6-9-15-14-6-3-8-4-9-8l-2-4h-17l-1 3c-3 6-6 7-24 7-16 0-16 0-22 3-10 5-16 14-16 27 0 11 6 21 16 26l6 3 33-1c32 0 34 0 38-2zm81-1c39-5 68-23 88-53 7-10 15-26 19-37l2-6-2-6c-7-20-20-42-34-56-27-27-64-39-116-36l-18 1c-2 1-2 1 3 17 4 15 8 40 10 56 0 6 0 7 2 7l32 1c27 0 29 1 32 3 4 2 8 7 8 12l3 9c3 9-1 19-9 23-4 2-6 2-36 2l-33 1c-2 3-2 10 0 14 6 11 7 29 2 41l-3 8c-1 2 32 2 50-1zm-684 2l-3-14c-3-12-7-29-9-44l-1-5-12-1c-11-1-12-1-16-4-7-4-8-8-9-19 0-15 0-15 2-18 4-7 9-9 24-9l10-1 3-25c5-14 21-21 34-15 6 3 7 3 7 0l5-19 4-19c0-2-3-2-20-3-52-3-89 9-116 36-14 14-27 36-34 56l-2 6 2 6c4 11 12 27 19 37 19 30 48 47 87 53 8 2 25 3 25 2zm612-242l17-16c43-43 55-89 38-142-5-12-10-23-13-25-4-3-21-10-29-12-42-12-81-5-117 23-13 10-40 39-40 42l2 2a415 415 0 0151 30l22-21c19-18 23-21 30-21 4 0 10 3 14 7l8 7c4 2 7 7 7 12 0 10-10 18-20 15-3-1-4-1-7 2s-3 4-2 7c2 7 0 11-9 20l-7 8 5 6a350 350 0 0142 61l8-5zm-577-34a389 389 0 0127-39c1-1 0-3-8-10-10-10-12-13-11-21 1-6 4-11 10-15l6-4c3-3 7-5 12-5s8 2 13 7l8 7 5 4 9-8c11-10 16-12 24-12 11 0 20 7 23 18l2 5 9-6a671 671 0 0126-16c0-2-9-12-21-24-21-22-41-35-63-42-24-8-47-8-73 0-9 2-28 10-31 12-4 4-15 33-18 50-2 13-1 35 2 47 3 11 8 23 14 33 8 14 23 33 26 33l9-14zm393-132c3-53-9-89-36-117-14-14-36-27-56-34l-6-2-6 2c-28 10-56 29-69 50-13 19-21 43-23 67-1 13-1 13 7 11l43-9 13-1v-12c1-15 2-19 9-23 4-4 5-4 22-3 9 1 13 3 17 8 2 3 2 4 2 35v31l11 2a352 352 0 0170 12l2-17z" fill="#fde787"/><path d="M485 990c-75-27-114-83-114-164l-1-14-12 11c-30 30-62 48-99 53-10 2-36 1-47-1a225 225 0 01-63-25 201 201 0 01-26-90c0-45 17-82 54-119l11-12h-14c-81 0-137-39-164-114l-4-15 4-15c21-58 59-94 113-108a222 222 0 0162-7l-11-12c-43-43-59-92-48-146 3-17 17-54 23-60 2-2 17-10 29-15 9-4 23-7 34-10 11-2 36-3 47-1 36 5 69 22 100 53l11 11 1-15c0-82 39-138 114-165l15-4 15 4c75 27 114 83 114 164l1 13 10-9a180 180 0 0190-51c12-2 44-2 58 1 21 4 55 18 61 24 3 4 13 25 17 39 20 62 5 119-45 170l-9 10h14c81 0 137 39 164 114l4 15c0 9-14 42-26 59-32 47-79 70-143 70l-15 1 11 11c50 50 65 108 45 170-4 13-14 35-17 39-7 7-41 20-64 25-12 2-44 2-56 0-33-7-64-25-91-52l-8-8-1 12a161 161 0 01-129 167l-16-4zm28-32c53-21 81-60 85-118 1-15 0-45-2-48-1-1-2-2-3-1l-12 3-12 4 1 4c7 10 3 26-8 33-6 3-12 5-26 6l-16 2-4 1-1 13c0 11-1 14-2 16-3 4-8 7-13 8l-8 2c-8 4-20 2-25-6-2-4-2-5-3-19l-1-16-6-2c-15-2-42-7-53-11-2 0-2 0-2 12 3 44 22 79 55 101 16 11 40 22 45 20l11-4zM263 844c18-3 34-11 50-22 9-6 23-18 23-20l-13-8a393 393 0 01-40-27l-10 9-12 11c-5 3-13 3-18 0-4-3-9-8-9-11l-3-5-5-8c-2-7 0-11 10-22l9-10-4-6a446 446 0 01-43-60 133 133 0 00-43 76c-3 10-2 32 0 44l12 35c4 8 4 8 11 11 13 7 34 13 49 15 9 1 28 0 36-2zm517 1c14-3 37-11 44-16 3-2 8-12 12-25 18-52 6-98-37-141-11-12-24-23-26-23l-10 16a334 334 0 01-20 30l-2 3 5 2c16 7 20 24 9 40-2 2-2 2 6 11 12 12 13 16 9 24l-5 9c-5 10-10 14-19 14-6 0-11-3-20-13l-9-9-13 9a404 404 0 01-41 28c0 1 9 10 21 18 17 12 37 21 56 24 10 1 29 1 40-1zm-240-73a274 274 0 00206-151l-22-1c-17 1-22 1-26-1-23-5-39-26-39-49 0-22 16-43 39-48 4-2 10-2 20-2 18 0 21 1 24 7 2 4 2 4 0 7-3 6-6 7-24 7-14 0-16 0-21 2-7 4-10 7-14 14-3 5-3 7-3 14 0 11 6 21 16 26 4 2 6 2 39 2 32 0 34 0 38-2 6-3 10-7 13-13 3-5 3-7 3-13s-1-9-3-14c-4-7-6-9-15-14-6-3-8-4-10-8l-2-4 2-4c2-3 8-6 11-6 2 0 3 0 3-8a290 290 0 00-40-158 275 275 0 00-509 154v12l18-1c22 0 25 0 28 7 2 4 2 4 0 7-3 6-6 7-24 7-14 0-16 0-21 2-7 4-10 7-14 14-3 5-3 7-3 14 0 11 6 21 16 26 4 2 6 2 39 2 32 0 34 0 38-2 6-3 10-7 13-13 3-5 3-7 3-13s-1-9-3-14c-4-7-6-9-15-14-6-3-8-4-10-8l-2-4 2-4 7-5c4-1 4-1 12 3 32 15 40 55 15 81-6 6-14 11-24 13-4 2-10 2-30 1-24 0-25 0-27 2-4 5-5 7-2 13l12 20c1 1 2 1 6-1 9-3 13 0 24 15a276 276 0 00256 103zM432 653c-16-3-27-9-37-20-14-14-19-34-11-43 9-11 25-6 27 8 1 8 2 11 6 15 14 14 42 15 59 2 3-2 8-10 8-12 0-4 2-9 5-13 8-9 23-5 26 8 2 9 3 11 7 15 14 14 42 15 59 2 4-3 8-9 9-15 0-5 1-8 5-11 5-6 15-6 21 1 4 4 5 7 3 16-1 11-6 19-15 29-9 8-20 14-32 18-10 2-30 2-40-1s-20-8-26-13l-6-4-6 4c-6 5-18 11-26 14-9 2-28 2-36 0zM312 472c-6-5-8-7-7-16 0-20 12-41 29-54 9-7 14-9 23-13 26-8 55-3 77 14 15 11 27 32 29 50 1 12-5 19-15 19-9 0-15-7-16-18-2-11-10-23-20-30-9-6-17-8-28-8a47 47 0 00-49 41l-3 10c-3 4-8 7-12 7l-8-2zm361 0c-5-4-7-7-8-15-1-11-5-20-13-27a47 47 0 00-36-14c-11 0-19 2-28 8-10 7-18 19-20 30-1 11-7 18-16 18-10 0-16-7-15-19 2-18 14-39 29-50a83 83 0 01100-1c17 13 29 34 29 54 0 7 0 8-2 11-3 4-8 7-12 7l-8-2zm181 124c39-5 68-23 88-53 7-10 15-26 19-37l2-6-2-6c-7-20-20-42-34-56-27-27-64-39-116-36l-18 1c-2 1-2 1 3 17 4 15 8 40 10 56 0 6 0 7 2 7l32 1c27 0 29 1 32 3 4 2 8 7 8 12l3 9c3 9-1 19-9 23-4 2-6 2-36 2l-33 1c-2 3-2 10 0 14 6 11 7 29 2 41l-3 8c-1 2 32 2 50-1zm-684 2l-3-14c-3-12-7-29-9-44l-1-5-12-1c-11-1-12-1-16-4-7-4-8-8-9-19 0-15 0-15 2-18 4-7 9-9 24-9l10-1 3-25c5-14 21-21 34-15 6 3 7 3 7 0l5-19 4-19c0-2-3-2-20-3-52-3-89 9-116 36-14 14-27 36-34 56l-2 6 2 6c4 11 12 27 19 37 19 30 48 47 87 53 8 2 25 3 25 2zm612-242l17-16c43-43 55-89 38-142-5-12-10-23-13-25-4-3-21-10-29-12-42-12-81-5-117 23-13 10-40 39-40 42l2 2a415 415 0 0151 30l22-21c19-18 23-21 30-21 4 0 10 3 14 7l8 7c4 2 7 7 7 12 0 10-10 18-20 15-3-1-4-1-7 2s-3 4-2 7c2 7 0 11-9 20l-7 8 5 6a350 350 0 0142 61l8-5zm-577-34a389 389 0 0127-39c1-1 0-3-8-10-10-10-12-13-11-21 1-6 4-11 10-15l6-4c3-3 7-5 12-5s8 2 13 7l8 7 5 4 9-8c11-10 16-12 24-12 11 0 20 7 23 18l2 5 9-6a671 671 0 0126-16c0-2-9-12-21-24-21-22-41-35-63-42-24-8-47-8-73 0-9 2-28 10-31 12-4 4-15 33-18 50-2 13-1 35 2 47 3 11 8 23 14 33 8 14 23 33 26 33l9-14zm393-132c3-53-9-89-36-117-14-14-36-27-56-34l-6-2-6 2c-28 10-56 29-69 50-13 19-21 43-23 67-1 13-1 13 7 11l43-9 13-1v-12c1-15 2-19 9-23 4-4 5-4 22-3 9 1 13 3 17 8 2 3 2 4 2 35v31l11 2a352 352 0 0170 12l2-17z" fill="#d7c8b4"/><path d="M487 990c-76-26-115-82-115-163l-1-16-12 11c-28 28-57 45-90 52-13 2-47 2-60-1-23-5-57-19-61-25-3-5-12-24-16-37-21-62-5-120 46-170l10-12-16-1c-62 0-108-23-139-69-8-12-18-33-24-48l-3-11 3-11a161 161 0 01162-117l15-1c1 0-3-5-9-10-27-27-44-57-51-90a169 169 0 0122-117c5-7 42-22 62-25 34-7 68-2 98 13 18 9 35 22 52 39l11 10 1-17c0-56 17-98 53-129 16-14 40-28 64-36l11-3 11 3c15 6 36 16 48 24 46 31 69 77 69 139l1 16 11-9c47-47 101-63 160-47 15 4 42 15 47 20 3 2 9 15 15 28 25 66 11 127-41 180-6 5-10 10-10 11l16 1c63 0 109 23 140 69 8 12 18 33 24 48l3 11-3 11a161 161 0 01-164 117l-18 1 10 11c32 32 49 64 54 102 2 10 1 34-1 46-4 17-11 36-19 53-5 9-5 10-16 15-18 9-38 16-56 18-12 2-36 2-47 1-34-6-64-22-93-50-6-7-12-12-12-11l-1 15c0 71-32 123-92 151-13 6-33 14-36 14l-13-4zm20-28l17-8c40-19 63-49 72-92 2-8 2-15 3-31l-2-41a148 148 0 00-34 9 434 434 0 01-48 7v32c-1 35-1 36-9 40s-16 2-20-6c-2-4-2-7-2-22l-1-31v-13l-4-1a415 415 0 01-74-14 246 246 0 00-1 71c9 43 32 73 72 92a209 209 0 0024 10l7-2zM253 847c23-3 48-13 69-31a217 217 0 0039-43l-4-3a359 359 0 01-62-43l-23 22c-20 22-26 26-31 26-10 0-18-13-13-22 0-2 5-7 9-12l10-11 14-15 11-12-4-4c-7-8-17-22-18-26-4-11 7-22 19-19 4 1 7 4 15 15a276 276 0 00451-25c9-15 12-22 11-23l-22-1c-17 1-22 1-26-1-23-5-39-26-39-49 0-22 16-43 39-48 8-3 34-3 39 0 5 2 7 7 5 12-3 6-6 7-25 7-15 0-16 0-21 3-10 5-16 14-16 27 0 12 6 21 16 26l5 3h67l5-3c10-5 16-15 16-27 0-13-6-21-18-27-6-3-8-5-9-7-2-5-2-6 0-10 2-3 7-5 11-5 1 0 2-1 2-8a290 290 0 00-40-158 275 275 0 00-509 154v12l19-1c21 0 24 1 27 7v7c-3 6-6 7-25 7-18 0-20 1-28 7-6 6-9 13-9 23 0 9 3 16 9 22 8 7 9 7 46 7h33l5-3c10-5 16-15 16-27 0-13-6-21-18-27-6-3-8-5-9-7-2-5-2-6 0-10 1-2 3-3 6-4 4-1 4-1 12 3 32 15 40 55 15 81-6 6-14 11-24 13-4 2-10 2-30 1l-26 1-3 4-14 12a348 348 0 00-34 29c-15 14-32 41-38 62-8 29-4 63 11 93 3 7 4 8 10 11 12 6 35 13 50 15h26zm179-194c-16-3-27-9-37-20-14-14-19-34-11-43 9-11 25-6 27 8 1 8 2 11 6 15 14 14 42 15 59 2 3-2 8-10 8-12 0-4 2-9 5-13 8-9 23-5 26 8 2 9 3 11 7 15 14 14 42 15 59 2 4-3 8-9 9-15 0-5 1-8 5-11 5-6 15-6 21 1 4 4 5 7 3 16-1 11-6 19-15 29-9 8-20 14-32 18-10 2-30 2-40-1s-20-8-26-13l-6-4-6 4c-6 5-18 11-26 14-9 2-28 2-36 0zM312 472c-6-5-8-7-7-16 0-20 12-41 29-54 9-7 14-9 23-13 26-8 55-3 77 14 15 11 27 32 29 50 1 12-5 19-15 19-9 0-15-7-16-18-2-11-10-23-20-30-9-6-17-8-28-8a47 47 0 00-49 41l-3 10c-3 4-8 7-12 7l-8-2zm361 0c-5-4-7-7-8-15-1-11-5-20-13-27a47 47 0 00-36-14c-11 0-19 2-28 8-10 7-18 19-20 30-1 11-7 18-16 18-10 0-16-7-15-19 2-18 14-39 29-50a83 83 0 01100-1c17 13 29 34 29 54 0 7 0 8-2 11-3 4-8 7-12 7l-8-2zm97 375c16-2 43-10 54-17 5-3 15-26 19-45l1-26c0-16 0-20-2-27-7-25-20-48-43-70-12-13-24-23-26-23l-3 4a333 333 0 01-42 62l11 13 13 14 9 11 9 10c4 10-4 22-13 22-6 0-10-3-31-25l-22-22-4 4a360 360 0 01-63 42l16 20 11 12 11 10c30 25 62 35 95 31zM193 597c2 0 2-1 1-2-5-11-5-15-5-24 0-11 2-18 6-26 2-3 2-4 1-13l-1-13v-3h-32c-31 0-33-1-36-3-3-1-4-3-5-7-2-6-2-9 1-14s8-7 28-8l31-1 13-1v-4c0-8 3-27 4-31l11-44-40-2c-17 1-24 1-32 3-43 9-73 32-92 72l-8 17-2 7 2 7a129 129 0 00113 91c4 1 40 0 42-1zm669-1c43-9 73-32 92-72l8-17 2-7-2-7-8-17c-19-40-49-63-92-72-10-2-14-2-39-2-31 0-34 0-32 5 4 11 11 45 14 70l1 7h5l30 1c24 0 26 0 30 2 8 4 11 15 7 22-4 6-5 7-40 7h-31l-1 8-2 10c-2 4-1 11 2 18 5 12 4 29-2 41-2 4-2 4-1 5l25 1c19-1 25-1 34-3zM230 356c8-16 27-43 38-55l4-5-22-22-24-24-1-7c0-4 1-5 4-9 4-5 10-6 16-5l11 9 11 9 15 13c6 7 12 12 13 12l5-3a200 200 0 0143-30l17-10c2 0 1-4-3-8-30-36-62-58-96-65-10-2-34-2-46 1-11 2-27 8-37 12-8 4-9 7-15 20-19 50-13 92 19 134l11 12 12 11 21 17 4-7zm554-1c28-24 47-49 56-76a137 137 0 00-9-97c-5-10-5-10-22-17-29-11-58-14-84-6-12 3-33 14-44 22-16 12-44 41-44 45l5 3a371 371 0 0156 37l6 5 5-5 8-7c4-4 10-6 15-4 6 2 9 4 10 10 2 8 0 13-9 21l-7 7 6 8a317 317 0 0140 59c1 3 3 2 12-5zm-35-100c-10-4-11-19-1-26 4-3 9-3 14 0 6 3 8 6 9 12 0 5 0 6-2 9-5 7-12 8-20 5zm-151-56c2-14 1-49-2-61-9-43-32-73-72-92l-17-8-7-2-7 2-17 8c-40 19-63 49-72 92-2 10-2 14-2 31l2 39 18-4c15-4 44-9 56-10l5-1v-12l1-31c0-24 2-28 13-29 4-1 5-1 9 1 8 4 8 5 8 41l1 32 11 1a321 321 0 0170 13l2-10z" fill="#c9b5a1"/><path d="M486 989c-59-21-96-60-109-115-3-16-4-30-5-63 0-2-3 0-13 10-23 23-47 39-73 47-16 6-27 7-46 7s-32-2-51-8c-13-4-35-14-38-17-6-5-21-43-25-62-2-14-2-45 0-57 7-33 24-62 52-90l12-13h-19c-33-1-57-6-80-18-31-15-54-39-71-73-6-15-13-33-13-37s7-22 13-36c17-35 40-59 71-74 22-11 46-16 78-18l18-1-10-11c-30-30-47-63-52-99-2-12-1-37 2-50 4-18 17-52 23-58a171 171 0 01136-19c26 8 49 23 72 46l13 12 2-20c0-33 5-58 17-81 15-31 39-54 74-71 14-6 32-13 36-13s22 7 37 13c51 25 80 65 89 122l2 46c0 2 2 1 13-10 29-29 62-46 97-51 31-4 68 3 101 21l9 4 5 11c19 40 25 74 17 109-6 31-23 61-50 88-9 9-11 12-9 12l47 2c57 9 97 38 122 90 6 14 13 32 13 36s-7 22-13 37c-17 34-40 58-71 73-23 12-48 17-81 17l-20 2 11 12c28 28 45 58 51 89 8 35 2 69-17 109l-5 11-9 4c-72 37-142 26-200-32l-10-9-1 18c-2 32-7 56-18 78-15 31-39 54-73 71-15 7-33 13-37 13l-15-4zm22-27l17-7c27-14 47-32 59-56 11-21 16-45 16-74 0-15-2-34-3-35s-28 5-31 7c-2 1-25 5-40 6l-11 2-1 32c0 31-1 33-3 36-6 9-20 8-24-2-2-4-2-7-2-30l-1-30v-6l-7-1a392 392 0 01-72-14c-2-1-3 4-4 27v30c6 52 30 86 74 108 13 5 21 9 25 9l8-2zM259 847c26-4 55-20 75-41 17-17 30-32 29-34l-6-3a359 359 0 01-63-44l-22 23-24 23c-4 3-11 3-15 0s-6-7-6-12c0-6 0-7 26-34l20-22-4-6c-8-8-17-21-18-25-2-7 2-15 11-17 3-1 4-1 8 1 4 1 6 3 10 10a283 283 0 00126 93 272 272 0 00339-130c5-11 6-10-20-10-18 1-23 1-28-1-26-6-42-34-36-59 5-18 21-33 38-37l21-1c16 0 16 1 19 3 3 4 3 9 0 13-3 2-3 3-21 3-21 1-22 1-30 8-6 6-9 13-9 22 0 10 3 17 10 23 8 8 9 8 47 8 32 0 34-1 38-3 5-3 12-11 14-16 3-7 2-20-1-26-3-5-10-12-16-14-7-3-9-6-9-11s4-8 9-8l5-1v-8a302 302 0 00-23-125 285 285 0 00-148-145 261 261 0 00-144-18c-61 10-113 36-156 78a272 272 0 00-80 209v8h41l3 3c3 4 3 9 0 13-3 2-3 3-21 3-21 1-22 1-30 8-6 6-9 13-9 22 0 10 3 17 10 23 8 8 9 8 47 8 32 0 34-1 38-3 5-3 12-11 14-16 3-7 2-20-1-26-3-5-10-12-16-14-7-3-9-6-9-11 0-4 3-8 7-9 5-1 18 6 25 14 27 27 15 73-22 82-5 2-11 2-31 1h-25l-4 4-12 10c-20 16-39 34-48 45-22 28-30 51-30 81 0 22 5 42 14 62 5 10 6 11 21 16 12 5 22 8 31 9 9 2 32 2 41 1zm173-195c-26-5-44-21-49-43-2-7-2-11 0-16 5-11 20-11 25 0l2 8c0 13 18 24 38 24s35-10 37-25c1-6 4-10 10-12 4-2 5-2 8-1s6 2 7 4c3 2 4 5 5 13 3 12 20 21 38 21 20 0 35-10 38-25 1-7 3-11 9-13 4-2 5-2 8-1 5 1 10 6 11 10s-1 16-5 23c-5 11-16 21-27 27-13 6-19 7-34 7s-22-1-34-7l-13-8-6-4-6 4c-7 6-18 11-26 13-9 3-28 3-36 1zM312 471c-5-3-7-10-6-18 1-17 8-30 22-44 10-10 17-14 30-19 20-7 46-4 64 6 22 12 38 34 40 58 0 5 0 7-2 10-8 13-25 7-27-10-2-16-18-33-35-38-7-1-22-1-29 1-20 5-35 23-35 40 0 5-3 12-7 14-4 3-11 3-15 0zm361 0c-4-2-7-9-7-14 0-17-15-35-35-40-7-2-22-2-29-1-17 5-33 22-35 38-2 17-19 23-27 10-2-3-2-5-2-10 2-24 18-46 40-58 18-10 44-13 64-6 13 5 20 9 30 19 14 14 21 27 22 44 1 6 1 8-1 11-3 8-12 11-20 7zm111 375c11-3 24-7 34-12l9-4 4-8c9-20 14-38 15-57 1-31-8-56-29-85-10-14-40-42-44-42l-3 3a391 391 0 01-44 64l10 12c16 17 32 33 33 36 4 7-1 18-9 20-7 2-9 1-33-23l-23-23-6 4a335 335 0 01-63 43l7 9c11 14 31 33 41 40 17 12 37 21 55 24 7 1 37 0 46-1zM187 599c10 0 11-1 8-6-7-14-7-32 1-46l2-5-1-14-1-13-33-1c-35 0-36 0-40-6-2-3-2-12 1-16 4-5 6-6 39-7 17 0 32-1 32-2l2-12c1-14 4-26 10-49l3-19c-1-1-20-3-35-3-29 0-53 5-74 16-24 12-42 32-56 60l-8 18v12c3 9 13 29 20 39 7 11 20 23 29 30 22 16 55 26 83 24h18zm664 0c13-2 18-3 30-7 33-11 57-33 74-68l8-18v-12l-8-18c-14-28-32-48-56-60-21-11-45-16-74-16-15 0-33 2-34 3l3 19a338 338 0 0111 62l32 2c34 0 35 1 39 6 3 4 4 12 1 16-4 6-5 6-40 6l-31 1-2 10c-2 21-2 20 0 25 3 7 5 17 5 25l-6 19-1 2c0 2 1 3 3 3h46zM231 358a334 334 0 0142-62l-23-24c-20-20-23-23-24-26 0-6 1-9 5-13 3-3 8-4 13-4 3 1 15 11 39 34l12 11 5-4a339 339 0 0162-43c0-2-11-15-23-27-44-44-89-56-142-39l-18 7c-8 4-9 5-12 12-5 8-11 28-14 40-2 12-2 35 0 45 7 29 21 54 46 77 11 11 26 23 27 23l5-7zm551 0c11-9 28-27 36-38 13-17 20-33 25-51 3-13 3-38 1-51-3-12-8-27-13-37l-4-9-9-4c-45-21-89-19-127 6-13 8-22 15-34 27-11 11-21 23-21 25l4 3a399 399 0 0164 43l8-7c8-7 10-9 16-9 11 0 17 11 12 21l-7 9-7 7c-1 1 1 3 5 8a361 361 0 0143 62l8-5zm-33-104c-4-2-7-7-7-11 0-10 11-18 20-14 7 4 11 12 7 19s-12 10-20 6zm-324-50l52-9h7v-6l1-31c0-23 0-25 2-29 6-11 20-10 25 0 2 3 2 6 1 34 0 35-1 33 8 33a353 353 0 0176 13c1-1 3-19 3-34 0-29-5-53-16-74-12-24-32-42-60-56l-18-8h-12l-18 8c-35 17-57 41-68 74-7 22-8 35-7 63a354 354 0 003 27l2 1 19-6z" fill="#a6948f"/><path d="M486 988c-64-23-100-65-111-129l-2-30-1-21-13 12c-29 29-59 46-93 53-13 2-39 2-52 0-17-4-38-11-56-20l-7-4-7-11c-6-14-14-36-17-50-2-13-2-45 0-57 7-33 24-62 52-90 7-6 12-12 12-13l-20-1A158 158 0 018 500l4-13a158 158 0 01157-114l20-1-10-12c-30-30-47-60-53-94-1-12-1-35 1-47 3-19 10-40 19-58 4-8 5-9 12-12 15-8 37-16 56-20 13-2 41-2 55 1 33 7 61 24 90 52 6 7 12 12 13 12l1-22A158 158 0 01500 8l13 4a158 158 0 01114 158l1 21c1 0 7-5 13-12 28-27 55-42 87-49 9-2 14-2 29-2a181 181 0 0191 26l7 14c14 31 20 60 17 87-4 39-20 72-53 105l-11 12 21 1a158 158 0 01163 127l-4 13a158 158 0 01-160 114l-22 1 11 12c59 58 71 124 37 196l-7 12c-3 4-28 15-44 20-53 15-100 5-144-30l-19-16-12-11-1 20a158 158 0 01-127 161l-14-4zm25-26c65-26 95-76 89-154-1-18-1-20-4-20l-15 4a355 355 0 01-68 12v32c0 34 0 36-6 40-7 4-15 2-19-4-1-3-2-6-2-35l-1-33-8-1c-17-2-40-6-54-10-20-5-20-5-21-1l-2 22c-4 74 25 122 89 148l11 3 11-3zM259 848c28-5 55-20 79-44 12-12 26-29 26-31l-3-4a362 362 0 01-66-45c-1 0-12 10-24 23l-24 24-7 1c-4 0-5-1-8-4-4-3-4-4-4-9s0-5 6-12a963 963 0 0140-44l-3-4-18-24c-4-10 3-20 12-20 5 0 9 3 15 12a275 275 0 00261 106 278 278 0 00207-153l-23-1c-26 0-32-1-41-7-35-22-29-76 11-88 5-2 9-2 23-2h17l3 3c3 3 3 4 3 6-2 7-3 7-23 8-17 0-19 1-23 3-6 3-11 8-14 14s-3 7-3 14c0 14 6 23 17 29l6 3h33c33 0 34 0 39-2 7-4 11-8 15-15 3-6 3-7 3-14 0-8 0-9-3-15-4-7-8-11-17-15-6-3-8-4-9-9 0-2 0-3 3-6 2-2 4-3 7-3s4 0 5-3a301 301 0 00-73-208 279 279 0 00-245-86 276 276 0 00-235 294l1 3 20-1h20l3 3c3 3 3 4 3 6-2 7-3 7-23 8-17 0-19 1-23 3-6 3-11 8-14 14s-3 7-3 15c0 7 0 8 3 14 4 7 8 11 15 15 5 2 6 2 39 2h33l6-3c11-6 17-15 17-29 0-7 0-8-3-14-4-7-8-11-17-15-6-3-8-4-9-9 0-2 0-3 3-6 4-4 7-4 15 0 18 9 28 25 28 45 0 18-9 33-24 42-10 5-14 6-43 6h-27l-2 3-13 11c-28 21-47 41-60 63-23 38-25 81-4 125 4 9 4 9 11 12 12 7 29 12 43 14 9 2 31 2 40 1zm171-196c-26-6-46-27-48-49 0-9 2-13 9-16 4-2 4-2 9 0s9 7 9 12c0 9 9 20 21 24 7 3 20 4 28 2 13-3 24-11 27-20 3-10 5-13 8-16 7-4 16-1 19 7l4 9c3 10 13 17 26 20 8 2 21 1 28-2 11-4 21-14 21-22 0-4 4-11 7-13 7-4 16-1 19 6 2 5 2 5 1 12-5 22-23 40-48 45-8 2-25 2-34 1-12-3-27-11-32-17-3-3-5-3-8 0-2 3-13 10-20 13l-11 3c-8 2-26 2-35 1zM314 471c-8-4-10-12-6-27 6-26 26-46 53-54a78 78 0 0197 48c2 8 4 20 3 23-3 7-10 11-16 9-4-1-10-7-10-11-4-16-7-23-16-32-27-25-73-13-84 21l-2 10c0 6-3 11-8 13l-6 2-5-2zm361 0c-5-2-8-7-8-13 0-5-3-15-7-21a53 53 0 00-79-10c-9 9-12 16-16 32 0 4-6 10-10 11s-9 0-12-4c-5-4-5-7-4-16 6-30 28-53 59-61 11-3 31-2 42 1 15 5 27 13 37 24 13 16 21 42 15 52-2 3-9 7-12 7l-5-2zm105 376c14-3 28-7 39-13l10-4 5-13c21-50 16-94-16-137-11-15-41-43-45-43l-4 4a386 386 0 01-44 64l20 23 23 25c3 6 2 11-3 16-2 3-3 3-8 3l-7-1-23-23-22-22-6 4a360 360 0 01-65 44c0 2 14 18 25 30 24 24 52 40 81 44 8 2 31 1 40-1zM196 599c3 0 3-2 0-6-7-12-7-33 1-46l2-4-1-15-2-15h-66l-4-3c-3-3-3-4-4-9 0-3 0-5 2-8 4-6 5-6 37-7l32-1c3-1 4-1 4-7 3-24 5-36 11-57 4-18 5-19 3-19l-19-2c-63-5-108 14-137 56-6 10-14 26-18 37l-2 7 2 7c6 18 19 40 31 54 21 22 50 35 86 39 8 1 37 0 42-1zm649 1c45-4 77-22 100-56 6-10 14-26 18-37l2-7-2-7c-6-18-19-40-31-54-28-29-70-43-123-39l-18 2c-3 0-3 1 3 21a344 344 0 0111 62l32 1c34 1 35 1 39 7l2 8c0 3-1 5-3 8l-4 4h-33l-33 1-2 9-1 15c-1 5-1 7 1 13 6 14 6 28 0 41-2 4-3 6-2 7 3 2 27 2 44 1zM230 361a360 360 0 0144-66l-22-22-23-24c-2-4-2-8 0-12 3-6 11-9 18-5l25 22c11 12 22 21 23 21l6-5a347 347 0 0162-43c0-3-19-24-32-36-20-17-41-29-60-35a141 141 0 00-96 13c-5 3-6 3-10 12-10 21-14 41-14 62 0 29 8 52 29 80 9 12 42 43 46 43 1 0 3-2 4-5zm552-3l18-15c15-16 25-29 33-46 18-35 18-68 2-110-6-15-7-16-18-21-14-5-27-10-39-12-15-2-38-1-51 2-24 7-47 21-68 42-13 13-24 27-24 29l6 4a372 372 0 0164 42c1 0 5-3 9-8 7-7 8-7 13-8 9-1 14 5 14 14 0 4-3 8-10 15l-7 7 6 8a341 341 0 0144 63l8-6zm-29-103c-5-1-9-6-10-10-1-7 6-16 13-16 10 0 16 10 12 18-3 7-8 10-15 8zm-330-49a402 402 0 0162-11l1-32c0-29 1-32 2-35 6-9 20-8 24 2l1 35-1 31h8a450 450 0 0178 13l2-18c5-62-14-107-56-136-10-6-26-14-37-18l-7-2-7 2c-18 6-40 19-54 31-27 26-41 65-39 111 0 15 2 30 3 31l2 1 18-5z" fill="#9f8b7d"/><path d="M487 988c-43-15-75-40-93-73-14-26-20-52-20-88 0-16-1-19-2-19l-15 13c-23 23-45 37-70 46-17 6-24 7-47 6-23 0-31-1-49-7-11-3-34-13-38-16-4-2-14-23-19-38-14-43-12-82 7-119 9-18 21-34 38-51l12-14c0-1-2-2-19-2l-28-1c-47-7-82-28-108-63-8-12-19-35-25-50l-3-12 3-12c6-15 17-38 25-50 31-42 75-64 135-64 12 0 17-1 18-2s-1-3-10-12c-38-38-56-79-54-123 1-25 7-46 20-73l5-11 12-6a158 158 0 01196 35l14 12c1 0 2-3 2-20l1-30c7-47 28-82 63-108 12-8 35-19 50-25l12-3 12 3c15 6 38 17 50 25 35 26 56 61 63 108l1 28c0 16 1 19 2 19l12-10c17-17 32-28 51-37 25-13 50-18 77-16 21 2 43 8 66 19l13 6 4 8c10 19 16 40 20 60 2 13 1 39-1 51-8 32-23 58-51 87l-11 13c1 1 5 2 19 2l29 1c47 7 82 28 108 63 8 12 19 35 25 50l3 12-3 12c-6 15-17 38-25 50-26 35-61 56-108 63l-30 1c-14 0-19 1-20 2-1 0 2 4 12 14 31 32 48 63 53 99 2 12 1 37-2 50s-9 31-16 46l-6 12-13 6c-40 19-79 24-116 14-27-7-54-24-78-48-9-9-13-12-13-9l-1 17c-1 61-22 104-64 135-15 10-54 28-62 28l-14-4zm20-24c10-4 26-12 35-18 30-19 48-46 56-84 4-18 4-69 0-74l-3-1a603 603 0 01-81 16l-2 1v32l-1 35c-4 6-11 8-17 5s-7-4-7-40c-1-35-1-34-8-34a375 375 0 01-76-14c-5 3-5 55-1 74 8 38 26 65 56 84a207 207 0 0042 20l7-2zM258 849c32-6 59-22 87-51 11-13 20-24 20-26l-5-4a334 334 0 01-65-45l-24 23c-18 19-24 24-27 25-9 3-17-5-16-15 1-3 3-5 34-37l13-15-5-7c-8-9-16-21-17-25-3-11 9-20 19-14l4 4a280 280 0 00370 74 288 288 0 00104-117l-25-1c-19 0-25 0-29-2-15-4-28-17-33-33-6-20 4-43 23-54 9-5 15-6 37-6 11 0 12 0 15 2 3 4 3 8 0 11-2 2-4 2-19 2-16 0-18 1-23 3-7 3-13 9-16 16-4 8-4 19 0 27 3 7 9 13 16 16l5 2h34c33 0 34 0 38-2 7-3 13-9 16-16a32 32 0 00-16-43c-7-3-10-6-10-9 0-5 4-8 9-8h5l1-5a292 292 0 00-30-145 285 285 0 00-207-149c-12-2-18-2-40-2-23 0-29 0-41 2a276 276 0 00-235 298h28c12 0 13 1 15 3 3 3 3 7 0 10-2 2-4 2-19 2-16 0-18 1-23 3-7 3-13 9-16 16-4 8-4 19 0 27 3 7 9 13 16 16l5 2h34c33 0 34 0 38-2 7-3 13-9 16-16a32 32 0 00-16-43c-7-3-10-6-10-9 0-4 4-8 8-8s14 6 20 11c11 10 16 21 16 36 0 17-9 32-24 41-9 5-13 6-42 6h-27l-2 3-12 11c-40 30-63 58-74 90-10 28-8 61 6 93 5 13 7 15 15 19a131 131 0 0081 14zm181-197c-30-3-54-24-56-48 0-7 0-8 2-11 1-3 4-4 6-5 4-2 5-2 9 0 4 1 8 6 8 11 0 11 11 22 27 26 21 6 47-4 51-21 3-12 7-16 14-16s11 4 14 16c3 13 20 23 39 23 18 0 35-10 38-23 2-10 4-13 7-15 7-4 16-1 18 6 2 4 2 5 1 12-6 27-32 45-65 45-17 0-32-5-45-15l-7-5-7 5a74 74 0 01-54 15zM315 470c-7-3-8-7-8-16 1-16 8-30 22-44 7-7 10-10 18-13 13-7 23-9 37-9 13 0 23 2 36 9 17 8 32 25 37 44 3 9 4 17 3 20-3 7-10 10-17 7-5-2-8-7-8-13-3-17-16-33-34-39-8-3-22-4-30-2a50 50 0 00-39 45c0 5-3 10-8 11-5 2-5 2-10 0zm361 0c-5-2-8-6-8-11l-2-9c-4-18-18-31-37-36-8-2-22-1-30 2-18 6-31 22-34 39-1 12-12 18-21 12-4-4-5-8-4-15 3-17 9-29 21-42 8-7 11-9 19-13 13-7 23-9 37-9a74 74 0 0154 22c14 14 21 28 22 44 0 7 0 8-2 11l-6 5c-5 2-5 2-9 0zm107 377c12-2 28-8 38-13l8-4 4-9c9-22 13-37 14-57 1-33-7-56-29-85-11-14-41-43-46-43l-3 4a380 380 0 01-45 65l21 24 23 25c2 3 1 11-2 14l-6 3c-7 2-9 0-31-22l-21-22c-2-3-5-2-10 3a331 331 0 01-65 43c0 5 29 36 42 46 24 18 42 26 70 30 6 1 28 0 38-2zM198 599c1-1 1-2-2-8-6-14-6-28 1-42l3-8-1-8-1-13c0-9 2-8-34-8-28 1-31 1-35-1s-7-8-6-13c0-4 4-9 8-10l34-1c25-1 31-1 32-3l1-9a392 392 0 0114-73c-4-4-56-4-74 0-38 8-65 26-84 56-6 9-14 25-17 35l-3 7 3 7c3 10 11 26 17 35 19 31 49 50 86 56l12 2a388 388 0 0046-1zm664-1c38-8 65-26 84-56 6-9 14-25 17-35l3-7-3-7c-3-10-11-26-17-35-19-30-46-48-84-56-18-4-71-4-73 0v3a545 545 0 0115 80c1 1 7 2 31 2l33 1c5 1 9 6 10 11 0 4-3 10-7 12-3 2-5 2-34 1-36 0-34-1-34 8l-2 14-1 9 3 8c6 13 5 31-1 42-3 4-3 6 0 7l26 1c20-1 26-1 34-3zM232 359a327 327 0 0143-64l-22-23-24-23c-3-6 0-14 5-16 3-2 10-2 13-1a506 506 0 0148 44l8-6a362 362 0 0161-42c0-4-20-27-34-38-42-37-84-47-134-30l-18 7c-8 4-9 5-12 11-12 23-19 59-15 84 6 30 21 56 48 82 13 13 25 23 28 23l5-8zm550 0c12-9 28-26 37-37 12-17 20-34 25-52a146 146 0 00-14-94c-2-5-3-6-12-10-12-5-26-9-37-12-12-2-36-2-47 0-22 5-41 15-61 31-14 11-38 37-38 41a360 360 0 0170 48l9-7c4-5 9-8 10-9 7-2 15 2 16 9 2 6 0 9-8 17l-8 10 6 8a341 341 0 0144 63l8-6zm-31-105l-4-4c-3-3-3-4-3-8 1-5 1-6 4-9 3-2 5-3 8-3 8 0 13 5 13 13s-9 14-18 11zm-327-48c16-4 46-9 55-9 7 0 7 1 8-33 0-25 1-32 2-35 4-8 15-9 21-1 2 3 2 5 2 35v33h2l11 2a374 374 0 0173 13c4-2 4-55 0-73-8-38-26-65-56-84-9-6-25-14-35-17l-7-3-7 3c-10 3-26 11-35 17-30 19-48 46-56 84-3 13-4 43-2 60 1 12 2 15 5 13l19-5z" fill="#907c7c"/></svg>