<?xml version="1.0" standalone="no"?>
<!DOCTYPE svg PUBLIC "-//W3C//DTD SVG 20010904//EN"
 "http://www.w3.org/TR/2001/REC-SVG-20010904/DTD/svg10.dtd">
<svg version="1.0" xmlns="http://www.w3.org/2000/svg"
 width="123.000000pt" height="104.000000pt" viewBox="0 0 123.000000 104.000000"
 preserveAspectRatio="xMidYMid meet">

<g transform="translate(0.000000,104.000000) scale(0.100000,-0.100000)"
fill="#000000" stroke="none">
<path d="M64 1031 c-65 -28 -83 -110 -35 -163 24 -27 36 -33 71 -33 35 0 47 6
71 33 20 22 29 43 29 67 0 65 -78 120 -136 96z"/>
<path d="M434 1030 c-65 -26 -83 -109 -35 -162 l29 -33 372 0 372 0 30 34 c26
29 30 39 25 74 -3 25 -16 50 -31 66 l-26 26 -358 2 c-196 1 -367 -2 -378 -7z"/>
<path d="M35 596 c-67 -67 -27 -176 65 -176 92 0 132 109 65 176 -33 33 -97
33 -130 0z"/>
<path d="M405 596 c-45 -45 -45 -107 0 -152 l24 -24 369 0 369 0 26 24 c47 43
48 106 2 152 l-24 24 -371 0 -371 0 -24 -24z"/>
<path d="M64 201 c-41 -17 -66 -62 -61 -105 17 -122 177 -121 194 1 4 34 1 45
-23 72 -31 33 -76 46 -110 32z"/>
<path d="M434 200 c-12 -4 -31 -21 -44 -37 -29 -37 -23 -95 14 -132 l26 -26
370 0 370 0 26 26 c15 16 28 41 31 66 5 35 1 45 -25 74 l-30 34 -359 2 c-197
1 -368 -2 -379 -7z"/>
</g>
</svg>
