<?xml version="1.0" standalone="no"?>
<!DOCTYPE svg PUBLIC "-//W3C//DTD SVG 20010904//EN"
 "http://www.w3.org/TR/2001/REC-SVG-20010904/DTD/svg10.dtd">
<svg version="1.0" xmlns="http://www.w3.org/2000/svg"
 width="199.000000pt" height="199.000000pt" viewBox="0 0 199.000000 199.000000"
 preserveAspectRatio="xMidYMid meet">

<g transform="translate(0.000000,199.000000) scale(0.100000,-0.100000)"
fill="#000000" stroke="none">
<path d="M425 1368 c-11 -6 -23 -16 -27 -22 -4 -6 -8 -164 -8 -351 0 -187 4
-345 8 -351 21 -32 51 -34 591 -34 528 0 541 0 561 20 19 19 20 33 20 365 0
332 -1 346 -20 365 -20 20 -33 20 -562 20 -386 -1 -549 -4 -563 -12z m1105
-168 l0 -130 -288 0 c-159 0 -292 3 -295 6 -4 4 5 20 18 36 47 56 26 132 -42
152 -33 10 -89 -18 -120 -61 l-27 -39 -21 29 c-51 75 -128 94 -172 42 -21 -24
-24 -36 -20 -69 4 -27 15 -49 31 -62 13 -12 22 -25 19 -28 -4 -3 -46 -6 -95
-6 l-88 0 0 123 c0 68 3 127 7 130 3 4 251 7 550 7 l543 0 0 -130z m-823 -6
c23 -25 50 -100 41 -110 -11 -10 -87 17 -118 42 -34 29 -39 64 -14 89 22 21
62 12 91 -21z m224 26 c24 -13 25 -62 2 -86 -21 -21 -91 -53 -117 -54 -15 0
-17 5 -11 28 12 51 38 93 64 107 32 17 37 18 62 5z m-241 -217 c0 -4 -26 -33
-57 -65 -44 -45 -55 -60 -45 -70 9 -9 29 5 91 65 43 42 86 77 96 77 10 0 53
-35 96 -77 62 -60 82 -74 91 -65 10 10 -1 25 -45 70 -31 32 -57 61 -57 65 0 4
150 6 333 5 l332 -3 3 -173 2 -172 -547 2 -548 3 -3 160 c-1 87 0 165 2 172 4
10 38 13 131 13 69 0 125 -3 125 -7z"/>
<path d="M1197 893 c-12 -12 -8 -148 5 -161 8 -8 47 -12 110 -12 86 0 98 2
108 19 14 27 13 134 -2 149 -13 13 -209 18 -221 5z m183 -83 l0 -50 -75 0 -75
0 0 50 0 50 75 0 75 0 0 -50z"/>
</g>
</svg>
